<?xml version="1.0" encoding="UTF-8" standalone="no"?>
<svg
   xmlns:dc="http://purl.org/dc/elements/1.1/"
   xmlns:cc="http://creativecommons.org/ns#"
   xmlns:rdf="http://www.w3.org/1999/02/22-rdf-syntax-ns#"
   xmlns:svg="http://www.w3.org/2000/svg"
   xmlns="http://www.w3.org/2000/svg"
   viewBox="0 0 195.39018 118.8306"
   height="118.8306"
   width="195.39018"
   id="svg4932"
   version="1.1">
  <metadata
     id="metadata4938">
    <rdf:RDF>
      <cc:Work
         rdf:about="">
        <dc:format>image/svg+xml</dc:format>
        <dc:type
           rdf:resource="http://purl.org/dc/dcmitype/StillImage" />
        <dc:title></dc:title>
      </cc:Work>
    </rdf:RDF>
  </metadata>
  <defs
     id="defs4936" />
  <path
     id="path4944"
     d="m 47.222521,117.42435 c -0.383937,-0.38394 -4.134597,-0.6784 -8.334799,-0.65437 C 17.162649,116.89428 6.5174798,98.20203 2.0248078,52.040987 -2.7046422,3.4471067 -0.56256622,-1.6159493 23.897171,0.34301871 43.121983,1.8827237 80.505829,19.611484 80.505829,27.188874 c 0,3.778292 24.123421,23.620966 40.000001,32.901919 4.125,2.41135 7.77671,4.7773 8.11491,5.25767 0.70432,1.00039 3.4623,2.62828 9.88509,5.83464 2.475,1.23557 4.74307,2.59531 5.04015,3.02166 0.7882,1.13115 26.7114,14.29787 34.12582,17.33293 3.48372,1.42605 7.23403,3.0025 8.33403,3.503227 1.1,0.50073 3.6875,1.58263 5.75,2.40422 4.06427,1.61899 4.57642,2.6651 2.25,4.59585 -1.19066,0.98816 -1.80681,0.99026 -2.98774,0.0102 -1.33727,-1.10983 -12.24524,-6.757 -46.01226,-23.821037 -6.05,-3.05734 -11.15,-5.92563 -11.33333,-6.37397 -0.18334,-0.44834 -1.08334,-0.83012 -2,-0.84839 -0.91667,-0.0183 -3.35634,-1.25577 -5.4215,-2.75 -5.00257,-3.61959 -9.99196,-7.02195 -17.24517,-11.75981 -3.3,-2.155591 -9.150001,-6.256129 -13.000001,-9.112309 -7.62895,-5.659647 -14.67076,-8.530442 -11.13628,-4.540023 1.5792,1.782915 1.6937,2.591868 0.75,5.29896 -0.61255,1.757153 -1.11372,4.702672 -1.11372,6.545599 0,1.842923 -0.45,3.350773 -1,3.350773 -0.55,0 -1,-0.50488 -1,-1.12197 0,-0.70497 -0.83624,-0.54903 -2.25,0.41958 -1.237502,0.84786 -2.126353,2.06119 -1.975225,2.69631 0.151127,0.63511 -0.16672,0.88188 -0.706326,0.54839 -0.539607,-0.3335 -0.745528,-1.22025 -0.457603,-1.97058 0.287926,-0.75032 -0.427008,-2.02998 -1.588741,-2.84369 -2.101151,-1.471702 -0.247014,-3.603104 1.952079,-2.24399 0.436536,0.269794 1.350522,-0.853746 2.031076,-2.496755 0.73653,-1.778129 1.97848,-2.987291 3.06831,-2.987291 1.61135,0 1.53252,-0.321994 -0.65735,-2.684904 -1.36856,-1.476698 -2.2612,-3.276698 -1.98364,-4 0.86014,-2.241496 -0.540442,-4.315096 -2.914571,-4.315096 -1.752545,0 -2.268011,-0.568192 -2.268011,-2.5 0,-1.454545 0.575,-2.5 1.375,-2.5 0.75625,0 1.375,-0.458573 1.375,-1.019052 0,-0.587645 -1.058354,-0.753422 -2.5,-0.391592 -2.50529,0.628788 -3.514252,-0.84448 -1.451442,-2.119367 1.339527,-0.827873 -0.708732,-3.469989 -2.690055,-3.469989 -0.99037,0 -1.214095,-0.727185 -0.769147,-2.5 0.482324,-1.921731 0.239836,-2.5 -1.048336,-2.5 -1.164446,0 -1.499828,0.554423 -1.099116,1.816957 0.372228,1.172785 -0.312947,2.652717 -1.932612,4.174314 -2.933689,2.756057 -3.036914,3.33825 -0.960106,5.415057 1.244145,1.244146 1.924352,1.31489 3.454521,0.359284 2.41225,-1.506475 3.921247,-0.170972 1.688897,1.49472 -2.577798,1.923453 -1.147907,5.892046 1.851664,5.139201 1.970654,-0.494602 2.234278,-0.268696 1.767853,1.514918 -0.592808,2.266898 1.35614,5.408609 2.801186,4.515522 0.487681,-0.301404 0.886693,-0.108949 0.886693,0.427677 0,0.536626 -0.552976,1.160009 -1.228836,1.385295 -0.900422,0.300141 -0.760633,1.124182 0.523053,3.083334 1.846636,2.818323 0.833344,3.737275 -1.294217,1.173721 -0.684689,-0.825 -1.853539,-1.5 -2.597445,-1.5 -0.968192,0 -1.182792,-0.848817 -0.755165,-2.986949 0.827298,-4.136489 -2.778781,-5.635406 -6.208365,-2.580595 l -2.319416,2.06596 2.046649,2.178557 c 1.247559,1.327966 2.688351,1.93844 3.690195,1.563562 1.423849,-0.532788 1.461501,-0.391161 0.281671,1.059499 -1.786659,2.19679 -0.918872,4.216631 2.519646,5.864672 1.532301,0.73441 2.683984,1.78529 2.559294,2.33529 -0.33982,1.49894 -11.462053,1.2666 -11.967299,-0.25 -0.261481,-0.78488 0.544805,-1.25 2.166902,-1.25 2.918551,0 3.420728,-2.019743 1.083333,-4.357139 -0.825,-0.825 -1.5,-1.789286 -1.5,-2.142857 0,-1.024679 -2.756225,-3.5 -3.897187,-3.5 -0.572024,0 -0.793876,-0.641503 -0.493004,-1.425562 0.320295,-0.834676 -0.505536,-2.115235 -1.992391,-3.08946 -1.396686,-0.915144 -2.842629,-2.636141 -3.213205,-3.824438 -1.244549,-3.990791 -8.404213,-2.263521 -8.404213,2.027518 0,2.318922 -1.902379,1.4014 -3.5,-1.688058 -2.175334,-4.206632 -7.504265,-2.780647 -5.837778,1.562149 0.463615,1.208161 0.242434,1.560495 -0.752872,1.199301 -0.775143,-0.281298 -1.290376,-1.1302 -1.144964,-1.88645 0.145413,-0.75625 -0.641929,-0.25 -1.749648,1.125 -1.10772,1.375 -2.392455,2.966711 -2.854968,3.537136 -0.96974,1.195995 0.731063,3.072176 2.59023,2.857321 0.6875,-0.07945 1.685877,-0.200707 2.218615,-0.269457 0.532739,-0.06875 0.709594,-0.8 0.393011,-1.625 -0.387639,-1.010173 0.04713,-1.5 1.331385,-1.5 1.048844,0 2.505088,-0.5625 3.236097,-1.25 1.093576,-1.028486 1.210642,-0.748304 0.660602,1.581068 -0.862828,3.653998 3.186082,8.000238 8.91029,9.564614 6.188455,1.691254 7.205694,0.937963 3.75,-2.776956 -2.736042,-2.941283 -5.25,-6.447473 -5.25,-7.322117 0,-1.764648 2.107308,-0.644566 2.948147,1.567006 1.066331,2.804665 3.370049,3.918189 4.913331,2.374907 1.641132,-1.641132 2.46278,-0.21292 1.216838,2.115143 -0.729463,1.363014 -0.750615,2.230831 -0.06471,2.654745 0.560458,0.346383 0.760118,1.048692 0.443687,1.560688 -1.36557,2.209538 0.839348,2.894888 2.638726,0.820189 1.054166,-1.215464 2.251311,-1.851181 2.660322,-1.412706 0.409013,0.438476 0.181159,0.998121 -0.506341,1.243657 -0.6875,0.245536 -1.25,1.083928 -1.25,1.863098 0,3.82937 -11.690816,0.46838 -31,-8.912168 -3.575,-1.736762 -7.372353,-3.948269 -8.438561,-4.914459 -1.066209,-0.96619 -2.450268,-1.756709 -3.075686,-1.756709 -2.363556,0 -6.070562,-5.018564 -4.459548,-6.037357 0.810587,-0.51261 1.023795,-0.95322 0.473795,-0.979134 -1.15313,-0.05433 2.470782,-2.983509 3.69113,-2.983509 0.444878,0 0.80887,0.675 0.80887,1.5 0,0.825 -0.45,1.5 -1,1.5 -0.55,0 -1,0.675 -1,1.5 0,0.825 0.668944,1.5 1.486542,1.5 0.817598,0 2.998384,1.649705 4.846191,3.666011 4.154576,4.533428 6.998162,4.133295 6.492882,-0.913642 -0.294719,-2.943766 -0.0884,-3.227889 2.174385,-2.994379 4.554959,0.470054 12.492733,-8.076351 10.427985,-11.227555 -2.153993,-3.287408 -6.809721,-0.679007 -5.889011,3.299356 0.441319,1.906924 0.209038,2.225007 -1.279753,1.752483 -1.679337,-0.533001 -4.393829,1.30216 -10.505179,7.10214 -2.434806,2.310754 -3.36365,0.894911 -1.3895,-2.118022 2.216141,-3.38226 2.056918,-4.565965 -0.614542,-4.568672 -1.793848,-0.0018 -2.270683,-0.592146 -2.35202,-2.91183 -0.06292,-1.794531 0.33376,-2.742326 1.035111,-2.473192 0.625422,0.239997 2.115015,-0.474679 3.310206,-1.58817 2.759885,-2.571224 4.721359,-2.559872 7.323615,0.04238 2.520003,2.520003 4.392111,1.387974 5.312135,-3.212147 0.500918,-2.504591 0.886903,-2.878936 2.008592,-1.948017 1.049603,0.871094 2.026038,0.86189 4.000438,-0.03771 3.252515,-1.481945 3.352429,-3.574523 0.238416,-4.993362 -2.775168,-1.264443 -6.626493,0.281263 -6.626493,2.659512 0,0.805649 -0.45,1.464816 -1,1.464816 -0.55,0 -1,-0.50341 -1,-1.118689 0,-0.615279 -1.575,0.08262 -3.5,1.550891 -2.454897,1.872441 -3.5,2.242904 -3.5,1.240661 0,-0.785905 1.00632,-2.09709 2.236266,-2.913744 1.94648,-1.292414 2.057485,-1.700245 0.856618,-3.147201 -1.524092,-1.836418 -5.092884,0.220019 -5.092884,2.934662 0,0.680132 -1.068035,1.504664 -2.373411,1.832292 -1.376002,0.345355 -2.895623,1.856421 -3.616056,3.595699 -0.683455,1.650005 -1.599811,2.779269 -2.036347,2.509475 -1.879428,-1.16155 -4.027024,0.994191 -4.607631,4.625106 -0.401069,2.508146 -1.153325,3.890848 -2.116808,3.890848 -1.215183,0 -1.261879,0.280456 -0.249747,1.5 2.022143,2.436533 -0.953774,1.892055 -3.6855492,-0.674314 -1.272948,-1.195873 -2.314451,-1.67243 -2.314451,-1.059017 0,0.613413 0.45,1.393412 1,1.733331 1.683029,1.040169 1.184585,3.78481 -0.565391,3.113281 -1.908936,-0.732528 -1.026487,2.937699 1.254833,5.219018 0.806757,0.806757 1.12775,2.129256 0.739472,3.04664 -1.719017,4.061515 -1.781007,6.776978 -0.105491,4.621061 1.435161,-1.846649 1.680757,-1.875532 3.2030532,-0.376692 1.661085,1.635491 0.706233,5.121631 -1.9247952,7.027378 -0.50647,0.36685 -0.208602,2.37445 0.682867,4.60245 1.3550742,3.38666 1.3869572,4.32615 0.2229582,6.56976 -1.2244562,2.36014 -1.1189782,2.97054 1.07095,6.19758 1.964895,2.89543 2.308457,4.33454 1.797553,7.52956 -0.421902,2.63843 -0.25715,3.94996 0.496183,3.94996 0.620294,0 1.032205,0.3375 0.915356,0.75 -0.116849,0.41251 0.344042,1.75327 1.024202,2.97949 0.68016,1.22621 0.972696,3.28118 0.65008,4.56658 -0.597378,2.380137 5.645568,12.065277 8.979988,13.931317 0.828427,0.46361 1.232769,1.58112 0.922316,2.54907 -0.451523,1.40779 -0.365041,1.45853 0.472051,0.27696 0.859159,-1.21272 1.333246,-1.06574 2.93238,0.90911 1.10309,1.36226 2.40401,2.04886 3.084808,1.6281 0.795452,-0.49162 0.0153,-1.85603 -2.405451,-4.2069 -3.502312,-3.40121 -4.02251,-5.35886 -1.635422,-6.15455 0.653125,-0.21771 1.1875,0.24992 1.1875,1.03918 0,0.78926 1.367665,2.86615 3.039255,4.61531 1.671591,1.74916 2.76322,3.7284 2.425843,4.39832 -0.337377,0.66991 0.09707,0.34163 0.965434,-0.72952 0.868366,-1.07115 1.321413,-2.75865 1.00677,-3.75 -0.656956,-2.06989 -0.100146,-2.22757 2.656448,-0.75229 1.079246,0.5776 1.698105,1.4776 1.375241,2 -0.322864,0.52241 -0.06743,0.94983 0.567622,0.94983 0.635055,0 2.349113,0.82677 3.809017,1.83727 3.487972,2.41427 6.15437,3.33768 6.15437,2.13135 0,-0.53274 -0.675,-0.96862 -1.5,-0.96862 -0.933333,0 -1.5,-0.94444 -1.5,-2.5 0,-2.52528 1.361478,-3.34217 2.5,-1.5 0.339919,0.55 1.743034,1 3.118034,1 1.42471,0 2.232135,-0.43342 1.877225,-1.00767 -0.342526,-0.55422 0.05222,-1.68267 0.877225,-2.50767 1.875498,-1.8755 2.353349,-1.00293 2.062044,3.76534 -0.174956,2.8638 0.148376,3.75 1.368188,3.75 1.242332,0 1.330617,-0.26667 0.397284,-1.2 -1.681598,-1.6816 -1.493284,-3.47348 0.443128,-4.21655 2.01661,-0.77385 3.263983,0.23789 1.577985,1.27989 -0.940715,0.5814 -0.888101,1.20013 0.229224,2.69563 1.385204,1.85405 1.422809,1.83264 0.839187,-0.47764 -0.502961,-1.99098 -0.308074,-2.30243 1.102133,-1.76128 2.562853,0.98346 6.238096,-1.93745 8.010054,-6.366 0.864211,-2.15988 2.443305,-4.79907 3.509097,-5.86486 1.806555,-1.80655 4.089194,-5.382917 4.089194,-6.406817 0,-0.24701 -1.0125,-0.75688 -2.250002,-1.13304 -1.363112,-0.41435 -1.757284,-0.88734 -1,-1.19997 0.6875,-0.28381 1.25,-1.15353 1.25,-1.9327 0,-0.77916 0.689096,-1.41667 1.531332,-1.41667 1.13435,0 1.46893,-0.92649 1.29063,-3.57391 -0.20072,-2.98044 -0.43315,-3.31072 -1.39968,-1.98891 -1.056058,1.44424 -1.278334,1.4412 -2.502887,-0.0343 -1.131382,-1.36324 -1.110492,-1.79986 0.132104,-2.76109 1.39968,-1.08275 4.948503,-6.09562 4.948503,-6.98998 0,-0.2302 -1.0125,-0.75316 -2.25,-1.16213 l -2.250002,-0.74358 2.303712,-0.44964 c 1.78851,-0.34909 2.25798,-1.04753 2.0992,-3.12306 -0.45523,-5.95078 -0.006,-7.32765 2.27977,-6.99296 2.62768,0.3847 4.30769,5.16769 2.37774,6.76941 -0.68444,0.56804 -1.42803,0.85083 -1.65243,0.62844 -0.22439,-0.22239 -0.40799,4.29799 -0.40799,10.04529 0,8.20054 -0.32285,10.6537 -1.5,11.39772 -0.99559,0.62926 -1.07966,0.95322 -0.25,0.96338 2.38601,0.0292 1.28628,7.479157 -2.29628,15.555737 -3.715571,8.37644 -28.694569,17.8854 -33.737028,12.84294 z m -3.142899,-3.26396 c -0.713738,-1.15485 -5.573795,-2.07393 -5.573795,-1.05405 0,0.4334 0.7875,0.9938 1.75,1.24532 3.021266,0.78954 4.387725,0.72119 3.823795,-0.19127 z m 34.251129,-10.94286 c 2.391138,-4.29548 1.756648,-5.95356 -0.737221,-1.92654 -0.766365,1.2375 -2.097264,3.33255 -2.957555,4.65567 -1.326384,2.03996 -1.341154,2.33283 -0.09716,1.92654 0.806855,-0.26352 2.513225,-2.35857 3.791933,-4.65567 z M 65.571568,42.005803 c 2.265853,-1.212647 2.534636,-4.221658 0.526011,-5.888669 -2.062346,-1.711594 -7.227199,3.453259 -5.515605,5.515605 1.39335,1.678883 2.407909,1.75474 4.989594,0.373064 z M 49.18153,31.288119 c -1.386741,-1.386742 -1.968905,-1.428174 -4.093154,-0.291311 -3.433216,1.837401 -3.877059,3.691891 -1.429367,5.972263 2.93561,2.734936 8.359213,-2.844261 5.522521,-5.680952 z m 12.344279,4.491996 c 1.99103,-1.427461 2.248701,-2.090165 1.360862,-3.5 -2.525975,-4.011095 -9.035776,-0.696766 -7.856916,4.000185 0.718008,2.860772 1.939342,2.766732 6.496054,-0.500185 z M 31.831492,28.897351 c 2.401243,-3.832113 -3.387411,-6.196121 -6.382103,-2.606364 -1.992784,2.388762 -2.566047,4.252751 -1.01266,3.292705 0.511996,-0.316431 1.229458,-0.09226 1.594359,0.498169 0.936916,1.51596 4.573617,0.773304 5.800404,-1.18451 z m 25.07272,0.643088 c 2.082671,-1.576432 0.769861,-4.499452 -2.02083,-4.499452 -0.757655,0 -1.377555,-0.675 -1.377555,-1.5 0,-0.825 -0.419676,-1.5 -0.932612,-1.5 -0.512937,0 -1.218262,-0.9 -1.567388,-2 -0.823416,-2.594355 -3.291767,-2.544253 -6.1325,0.124477 -1.904767,1.789436 -2.047291,2.338589 -0.903737,3.482143 0.746716,0.746716 1.549208,1.928201 1.783315,2.625523 0.336595,1.002598 0.982616,0.971149 3.087779,-0.150316 3.029511,-1.613885 4.553885,-0.857621 2.721554,1.350202 -2.61347,3.149039 1.705,4.820351 5.341974,2.067423 z M 12.278415,24.640757 c 1.271959,-2.791646 0.748381,-3.59977 -2.3322662,-3.59977 -2.166012,0 -3.440322,1.697113 -3.440322,4.581787 0,2.44966 4.5626672,1.673471 5.7725882,-0.982017 z m 51.786282,-0.03865 c 1.796989,-1.332036 1.819844,-1.562054 0.307795,-3.097621 -1.829585,-1.858043 -5.866665,-0.547125 -5.866665,1.905018 0,2.888026 2.537292,3.432377 5.55887,1.192601 z m -3.246523,-8.189541 c -0.289479,-0.754368 -1.351622,-1.371579 -2.360319,-1.371579 -1.008697,0 -2.118333,-0.46007 -2.465858,-1.022378 -1.799556,-2.911742 -16.381754,-8.5281799 -27.73617,-10.6827833 -3.687914,-0.699815 -3.63593,1.5444884 0.06816,2.9426254 1.549987,0.585055 3.554057,2.345966 4.453489,3.9131359 1.761775,3.069717 3.728351,3.781478 3.728351,1.3494 0,-2.0411959 2.235271,-1.8862719 9.147329,0.633991 3.962763,1.444895 5.852671,2.675661 5.852671,3.811438 0,0.922597 0.917812,2.662604 2.039582,3.866683 l 2.039582,2.189234 2.879754,-2.129094 c 1.623099,-1.200009 2.650078,-2.727617 2.353429,-3.500673 z m -43.647041,4.020283 c 2.365743,-0.634595 4.037639,-5.088917 2.490713,-6.635843 -1.492572,-1.492572 -4.735287,0.02516 -6.004262,2.810256 -2.023294,4.440646 -1.38208,5.138806 3.513549,3.825587 z m -5.033398,-5.881197 c 2.677451,-2.469134 4.418092,-4.53899 3.868092,-4.5996799 -0.55,-0.06069 0.08241,-0.413224 1.40536,-0.783408 3.096166,-0.866364 4.9649,-3.657317 3.457878,-5.1643394 -0.789079,-0.789079 -1.525545,-0.658074 -2.656095,0.472476 -0.860357,0.8603574 -2.244871,1.5642864 -3.076697,1.5642864 -0.831827,0 -1.758999,0.398987 -2.060384,0.886637 -0.301384,0.48765 -2.090651,1.176045 -3.9761482,1.529767 -3.053492,0.572838 -3.500811,1.073048 -4.092743,4.5766649 -1.232417,7.294613 0.472794,7.657524 7.1307372,1.517596 z m 14.858643,-2.495376 c 0.77571,-1.255126 -1.222716,-5.0152889 -2.665492,-5.0152889 -2.17992,0 -3.661182,3.2655639 -2.56879,5.6631039 1.028881,2.258149 3.637859,1.935252 5.234282,-0.647815 z M 45.255827,110.7092 c -1.18132,-2.88523 -0.958288,-6.2765 0.328178,-4.99003 0.592997,0.593 0.930497,2.3705 0.75,3.95 -0.269356,2.35708 -0.462606,2.5435 -1.078178,1.04003 z m 135.750003,-2.77726 c -3.51168,-2.68065 -20.61713,-12.84066 -28.27825,-16.796237 -1.49696,-0.77291 -2.87175,-1.78541 -3.05508,-2.25 -0.18334,-0.46459 -1.15834,-0.84471 -2.16667,-0.84471 -1.00833,0 -1.98333,-0.35568 -2.16667,-0.7904 -0.18333,-0.43472 -2.80833,-1.72827 -5.83333,-2.87456 -3.025,-1.14629 -9.1,-3.56022 -13.5,-5.3643 -4.4,-1.80408 -9.35,-3.83131 -11,-4.50495 -1.65,-0.67364 -6.09127,-2.2336 -9.86948,-3.46659 -10.940991,-3.57049 -13.522191,-5.3016 -6.630521,-4.44685 3.025001,0.37518 6.777901,1.33683 8.339781,2.137 2.72392,1.3955 20.00865,7.88323 24.16022,9.06841 1.1,0.31403 2.9,1.12782 4,1.80843 1.1,0.68062 3.46288,1.54249 5.25084,1.91528 3.77621,0.78734 11.359,4.64632 15.93083,8.1074 1.74991,1.32477 4.33741,2.84809 5.75,3.38515 1.41258,0.53706 2.56833,1.43762 2.56833,2.001227 0,0.56361 0.51387,1.02475 1.14194,1.02475 0.62806,0 3.89056,1.71572 7.25,3.81271 3.35943,2.09699 7.68306,4.41646 9.60806,5.15438 3.78436,1.45066 6.25285,3.81477 5.40895,5.18023 -0.92274,1.49303 -2.8006,0.87975 -6.90895,-2.25637 z M 51.905827,106.87432 c 0.05565,-1.7622 0.725068,-3.37502 1.50935,-3.63645 0.990014,-0.33 1.213168,0.0415 0.75,1.24846 -0.362643,0.94503 -0.65935,2.58143 -0.65935,3.63645 0,1.05501 -0.3825,1.91821 -0.85,1.91821 -0.4675,0 -0.805,-1.425 -0.75,-3.16667 z m 12.185783,2.30547 c -0.681216,-1.10223 0.288131,-4.1388 1.321206,-4.1388 1.024206,0 3.093011,2.25184 3.093011,3.36667 0,0.53166 -0.296096,0.67057 -0.657991,0.30867 -0.361895,-0.36189 -1.221832,-0.19004 -1.910972,0.38189 -0.784661,0.65122 -1.474352,0.6817 -1.845254,0.0816 z m -30.585783,-4.1388 c 0,-1.94919 1.060669,-2.606 2.264432,-1.40223 0.801115,0.80111 -0.247381,3.40223 -1.371421,3.40223 -0.491156,0 -0.893011,-0.9 -0.893011,-2 z m 149.500003,-2.40677 c -3.3,-2.37187 -9.375,-5.99198 -13.5,-8.044677 -4.125,-2.05271 -8.175,-4.15711 -9,-4.67646 -0.825,-0.51935 -7.575,-3.92172 -15,-7.56083 -7.425,-3.6391 -12.93427,-6.81144 -12.24282,-7.04964 0.69146,-0.23819 3.16646,0.46248 5.5,1.55705 2.33355,1.09457 6.4086,2.92036 9.05568,4.0573 2.64707,1.13694 6.83213,3.42996 9.30013,5.0956 2.468,1.66564 4.71495,3.02843 4.99323,3.02843 0.72622,0 10.92549,5.11648 17.51737,8.787607 3.09298,1.72253 5.90548,2.84999 6.25,2.50546 0.34453,-0.34452 0.62641,-0.1014 0.62641,0.54026 0,0.64167 0.585,1.16667 1.3,1.16667 1.92059,0 3.62088,2.04261 3.01487,3.62186 -0.74339,1.93722 -1.09594,1.80059 -7.81487,-3.02863 z m -142.833336,2.7401 c -1.217929,-1.21793 -0.689078,-3.33333 0.833333,-3.33333 0.833333,0 1.5,0.88889 1.5,2 0,1.99224 -1.065542,2.60112 -2.333333,1.33333 z m 19.333333,-1.75 c 0,-0.87083 0.7125,-1.58333 1.583333,-1.58333 1.765927,0 1.45839,2.15276 -0.395833,2.77083 -0.653125,0.21771 -1.1875,-0.31666 -1.1875,-1.1875 z m 8,0.41667 c 0,-0.55 0.480324,-1 1.067388,-1 0.612312,0 0.796754,-0.85269 0.432612,-2 -0.495048,-1.55976 -0.1797,-2 1.432612,-2 1.137064,0 2.067388,-0.45 2.067388,-1 0,-0.55 0.453813,-1 1.008474,-1 1.055759,0 -0.39601,3.11436 -2.913462,6.25 -1.549753,1.93031 -3.095012,2.30477 -3.095012,0.75 z m -44.839919,-1.23992 c -1.58913,-1.58913 -1.460211,-3.76008 0.223288,-3.76008 1.501594,0 2.900431,3.70657 1.682832,4.45909 -0.410321,0.25359 -1.268075,-0.061 -1.90612,-0.69901 z m 23.839919,0.43105 c 0,-0.44488 0.606311,-1.63805 1.347357,-2.65149 1.524884,-2.0854 3.037113,-0.70513 2.048899,1.87012 -0.620975,1.61823 -3.396256,2.25674 -3.396256,0.78137 z m -17.654923,-1.73426 c -0.325685,-0.84872 -0.322437,-1.81284 0.0072,-2.1425 0.864661,-0.86466 3.730905,1.74199 3.077678,2.79894 -0.853491,1.38097 -2.431958,1.04509 -3.084896,-0.65644 z m 6.654923,-1.95687 c 0,-0.825 0.675,-1.5 1.5,-1.5 0.825,0 1.5,0.675 1.5,1.5 0,0.825 -0.675,1.5 -1.5,1.5 -0.825,0 -1.5,-0.675 -1.5,-1.5 z m 19,0.55902 c 0,-1.3935 1.83834,-2.27697 3.106763,-1.49304 0.77153,0.47683 0.695806,0.94441 -0.25,1.54371 -1.785094,1.13109 -2.856763,1.11208 -2.856763,-0.0507 z m -11,-0.78456 c 0,-0.49071 0.688229,-1.76571 1.529398,-2.83333 1.481064,-1.879777 1.520569,-1.864597 1.25,0.48054 -0.257815,2.2346 -2.779398,4.36915 -2.779398,2.35279 z M 18.117056,97.1639 c -1.248224,-1.37928 -1.412627,-2.12762 -0.58041,-2.641957 1.641657,-1.0146 4.689146,2.199077 3.352695,3.535537 -0.707695,0.70769 -1.576617,0.42762 -2.772285,-0.89358 z m 45.388771,0.43611 c 0,-1.79236 1.6522,-2.892007 3.048558,-2.02901 0.716805,0.44301 0.678065,1.09446 -0.122444,2.05902 -1.510953,1.82058 -2.926114,1.80607 -2.926114,-0.03 z m -31.46878,-0.85215 c -0.428064,-0.98622 -0.497705,-2.073717 -0.154759,-2.416657 1.015492,-1.0155 1.834088,0.41094 1.366695,2.381517 -0.41435,1.74695 -0.46826,1.74851 -1.211936,0.0351 z m 19.484093,0.75742 c 0.02734,-1.72154 1.855462,-3.926847 2.62079,-3.161517 0.409667,0.40967 -0.01587,1.505557 -0.945627,2.435327 -0.929762,0.92976 -1.683585,1.25654 -1.675163,0.72619 z M 23.755827,95.79099 c 0.229167,-0.6875 1.016667,-1.249997 1.75,-1.249997 0.733333,0 1.520833,0.562497 1.75,1.249997 0.247863,0.74359 -0.461111,1.25 -1.75,1.25 -1.288889,0 -1.997863,-0.50641 -1.75,-1.25 z m 15.338096,0.39254 c -0.977993,-1.582417 0.317737,-5.340597 1.684263,-4.885087 1.727881,0.57596 1.876616,2.15655 0.393763,4.184477 -0.949335,1.29829 -1.577706,1.51015 -2.078026,0.70061 z m 34.411904,-1.583517 c 0,-1.61407 1.416299,-2.80939 2.291619,-1.93407 0.780376,0.78038 -0.294846,3.375047 -1.398608,3.375047 -0.491156,0 -0.893011,-0.64844 -0.893011,-1.440977 z M 47.53763,92.290993 c -0.02188,-2.23636 0.436032,-3.25 1.468197,-3.25 1.908241,0 1.922605,2.059 0.0318,4.55887 -1.388776,1.836127 -1.469917,1.765327 -1.5,-1.30887 z m 11.968197,1.25 c 0,-0.825 0.7301,-1.5 1.622445,-1.5 1.32879,0 1.397126,0.27149 0.377555,1.5 -0.684689,0.825 -1.414789,1.499997 -1.622445,1.499997 -0.207655,0 -0.377555,-0.674997 -0.377555,-1.499997 z M 27.61011,92.126603 c -0.767645,-0.48607 -1.119268,-1.60418 -0.781385,-2.48469 0.948921,-2.47285 2.677102,-1.89246 2.677102,0.89908 0,2.81245 0.01802,2.79738 -1.895717,1.58561 z m 41.583217,0.26856 c -1.373842,-1.37385 -0.661238,-3.49576 1.0625,-3.1638 0.9625,0.18536 1.75,0.96835 1.75,1.73999 0,1.57886 -1.764293,2.47201 -2.8125,1.42381 z m -49.1875,-1.35417 c -0.339919,-0.55 -0.310226,-1.49805 0.06598,-2.10677 0.672114,-1.0875 2.382407,0.579 2.418704,2.35677 0.02238,1.09614 -1.763801,0.91642 -2.484687,-0.25 z m 14.5,-0.94099 c 0,-1.83044 1.669115,-3.72323 2.526868,-2.86548 0.686864,0.68687 -0.721772,4.80647 -1.643499,4.80647 -0.485853,0 -0.883369,-0.87344 -0.883369,-1.94099 z m 21.229167,-0.24651 c 0.618074,-1.85423 2.770833,-2.16176 2.770833,-0.39584 0,0.87084 -0.7125,1.58334 -1.583333,1.58334 -0.870834,0 -1.405209,-0.53438 -1.1875,-1.1875 z m -12.729167,-1.8125 c -0.818717,-1.32472 0.278819,-3.00001 1.965397,-3.00001 0.855034,0 1.156254,0.73081 0.824352,2 -0.564859,2.16003 -1.799333,2.60253 -2.789749,1.00001 z m 20.930902,-0.11181 c -0.862017,-1.39477 1.740925,-3.11637 2.923606,-1.93369 0.96192,0.96192 0.03523,3.0455 -1.354508,3.0455 -0.485081,0 -1.191176,-0.50031 -1.569098,-1.11181 z m -12.36864,-1.31317 c -1.069139,-1.28824 -1.006683,-1.65912 0.368242,-2.18673 2.183178,-0.83776 2.973924,0.0666 1.836046,2.09989 -0.825846,1.47571 -1.044481,1.48432 -2.204288,0.0868 z m 21.507983,-0.25257 c -0.932837,-2.43093 2.140493,-5.40454 3.433873,-3.32246 0.583493,0.93931 0.569975,1.6246 -0.03616,1.83334 -0.532379,0.18333 -0.967958,0.97083 -0.967958,1.75 0,1.95776 -1.646211,1.78101 -2.429755,-0.26088 z m -58.237924,-1.16193 c -1.684025,-2.69656 -0.09871,-4.78405 2.022362,-2.66299 1.948508,1.94851 2.167383,4.50246 0.385864,4.50246 -0.692699,0 -1.776401,-0.82776 -2.408226,-1.83947 z m 8.334346,1.17281 c -0.984836,-0.98484 -0.809932,-4.33334 0.226344,-4.33334 0.89317,0 2.106989,2.35149 2.106989,4.08179 0,1.06944 -1.367969,1.21692 -2.333333,0.25155 z m 36.5625,-1.52084 c 0.618074,-1.85422 2.770833,-2.16176 2.770833,-0.39583 0,0.87083 -0.7125,1.58333 -1.583333,1.58333 -0.870834,0 -1.405209,-0.53437 -1.1875,-1.1875 z m -30.229167,-0.69005 c 0,-1.16162 2.909352,-3.54643 3.547705,-2.90807 0.90557,0.90557 -0.733694,3.78562 -2.154694,3.78562 -0.766156,0 -1.393011,-0.3949 -1.393011,-0.87755 z m 9.015313,-0.87245 c 0.0084,-0.4125 0.433954,-1.41196 0.945627,-2.22104 1.152134,-1.82178 2.503797,-0.68242 1.693983,1.42792 -0.598079,1.55857 -2.667936,2.1805 -2.63961,0.79312 z m 29.984687,-0.14338 c 0,-0.95277 2.742825,-4.10662 3.571429,-4.10662 1.333947,0 0.117649,3.09604 -1.571429,4 -1.209442,0.64728 -2,0.68942 -2,0.10662 z m -20.868879,-1.44862 c -0.612573,-0.73811 -0.821577,-1.63421 -0.464454,-1.99133 0.750495,-0.75049 3.333333,1.15237 3.333333,2.45578 0,1.31658 -1.60662,1.05647 -2.868879,-0.46445 z M 17.44837,79.933633 c -0.842721,-1.57464 -0.834597,-2.39621 0.03214,-3.25 1.443717,-1.42216 4.175359,1.80278 3.349648,3.95455 -0.769599,2.00555 -2.077178,1.73313 -3.381785,-0.70455 z m 8.052474,0.60135 c -0.990125,-1.19303 -0.889994,-2.00534 0.510709,-4.14308 1.554002,-2.3717 1.845517,-2.47466 2.697281,-0.95265 0.62553,1.11776 0.58574,2.15135 -0.11534,2.9961 -0.588673,0.70931 -0.81928,1.54069 -0.51246,1.84751 0.30682,0.30682 0.128904,0.82296 -0.395369,1.14698 -0.524273,0.32402 -1.507443,-0.0787 -2.184821,-0.89486 z m 30.004983,-0.43498 c 0,-1.3935 1.83834,-2.27696 3.106763,-1.49303 0.77153,0.47683 0.695806,0.94441 -0.25,1.5437 -1.785094,1.13109 -2.856763,1.11208 -2.856763,-0.0507 z m 9.552786,0.0264 c -0.321975,-0.52097 -0.159164,-1.21065 0.361804,-1.53262 0.520967,-0.32198 1.210648,-0.15917 1.532624,0.3618 0.321975,0.52097 0.159164,1.21065 -0.361804,1.53263 -0.520967,0.32197 -1.210648,0.15916 -1.532624,-0.36181 z m -31.057151,-2.09247 c -0.34232,-0.55388 0.05271,-1.26612 0.877841,-1.58276 0.825131,-0.31663 1.255508,-1.21345 0.956393,-1.99293 -0.299116,-0.77949 -0.0457,-1.41725 0.563142,-1.41725 1.25632,0 1.328821,0.57034 0.476703,3.75 -0.639592,2.38663 -1.845047,2.90795 -2.874079,1.24294 z m 17.504365,-2.49294 c 0,-2.47118 1.354948,-3.35273 2.444227,-1.59024 0.72276,1.16945 -0.384944,4.09024 -1.551216,4.09024 -0.491156,0 -0.893011,-1.125 -0.893011,-2.5 z m 22,1.5 c 0,-0.55 0.45,-1 1,-1 0.55,0 1,0.45 1,1 0,0.55 -0.45,1 -1,1 -0.55,0 -1,-0.45 -1,-1 z m -51.977764,-2.25 c -0.01223,-0.9625 -0.472236,-1.75 -1.022236,-1.75 -0.55,0 -1,-0.45 -1,-1 0,-0.55 0.7875,-1.00689 1.75,-1.01531 1.301793,-0.0114 1.417729,-0.22609 0.452666,-0.83827 -1.051972,-0.66731 -1.034374,-1.0412 0.09305,-1.97687 2.527648,-2.09776 3.907167,2.92028 1.620634,5.89511 -1.529161,1.98947 -1.875945,2.11494 -1.89411,0.68534 z m 39.548009,-0.42754 c -0.751186,-1.95755 1.733349,-4.87089 3.31849,-3.89122 0.594362,0.36734 0.989397,1.77058 0.877854,3.11832 -0.23507,2.84029 -3.193889,3.38526 -4.196344,0.7729 z m 67.390368,0.6532 c -1.0372,-0.64103 -1.13857,-1.1977 -0.35987,-1.9764 0.7787,-0.77869 1.42376,-0.67467 2.2902,0.36934 1.44729,1.74387 0.10253,2.86343 -1.93033,1.60706 z M 12.135586,73.184383 c -1.512384,-1.67117 -1.525451,-1.98506 -0.130821,-3.1425 1.849087,-1.53461 2.13053,-1.32538 3.028186,2.25116 0.800562,3.18969 -0.46503,3.57904 -2.897365,0.89134 z m 64.110225,0.11598 c 1.781991,-0.887 3.568958,-1.28376 3.971038,-0.88168 1.05883,1.05883 -1.795778,2.59977 -4.711022,2.54305 -2.378008,-0.0463 -2.3419,-0.12734 0.739984,-1.66137 z m -46.319455,-0.60588 c -0.739745,-1.92774 0.104368,-4.6535 1.441097,-4.6535 1.639252,0 1.954962,2.53035 0.554648,4.44539 -1.232241,1.68519 -1.421368,1.70492 -1.995745,0.20811 z m 40.579471,-0.54651 c 0,-2.07751 2.583971,-3.58915 3.526992,-2.06331 0.325073,0.52598 0.114484,0.95632 -0.467975,0.95632 -0.582459,0 -1.059017,0.675 -1.059017,1.5 0,0.825 -0.45,1.5 -1,1.5 -0.55,0 -1,-0.85185 -1,-1.89301 z m 51.500003,0.66024 c -1.65,-0.561 -4.575,-1.59998 -6.5,-2.30884 -1.925,-0.70885 -4.4,-1.60437 -5.5,-1.99003 -1.31226,-0.46008 -1.55692,-0.86618 -0.71149,-1.18095 0.70868,-0.26386 4.30868,0.52315 8,1.74891 3.69132,1.22576 7.27399,2.37991 7.96149,2.56478 1.32091,0.3552 1.78313,2.47452 0.5,2.29252 -0.4125,-0.0585 -2.1,-0.56538 -3.75,-1.12639 z m -82.945825,-0.67956 c -0.468241,-0.75763 -0.130698,-1.93972 0.827498,-2.89791 1.715438,-1.71544 1.965755,-0.93592 0.720541,2.24387 -0.564623,1.44183 -0.95835,1.60817 -1.548039,0.65404 z m 7.838833,-1.66945 c 0.333844,-0.86999 0.606989,-2.08499 0.606989,-2.7 0,-0.81571 0.306445,-0.81177 1.132783,0.0146 1.309485,1.30948 0.471917,4.26721 -1.208387,4.26721 -0.627205,0 -0.865815,-0.71027 -0.531385,-1.58178 z m 8.839062,-1.41822 c -0.686961,-1.1 -0.885208,-2 -0.440547,-2 1.041778,0 3.208474,2.16098 3.208474,3.2 0,1.4734 -1.506151,0.82043 -2.767927,-1.2 z m 10.767927,0.059 c 0,-0.51754 0.45,-1.21909 1,-1.55901 0.55,-0.33992 1,0.0835 1,0.94098 0,0.85746 -0.45,1.55902 -1,1.55902 -0.55,0 -1,-0.42344 -1,-0.94099 z m -51.028291,-1.5931 c -1.032475,-1.24406 -1.023677,-2.00029 0.04654,-4 1.885648,-3.52337 2.737835,-3.05667 2.801192,1.53408 0.0586,4.24627 -0.772728,4.96614 -2.847727,2.46592 z m 43.288775,-1.15087 c -0.681735,-1.46814 -0.982442,-2.92642 -0.668239,-3.24062 0.732085,-0.73209 3.407755,2.89281 3.407755,4.6167 0,2.17446 -1.422648,1.45985 -2.739516,-1.37608 z m -33.285061,0.15534 c -1.02746,-1.23801 -1.018422,-2.04822 0.0474,-4.25 1.06149,-2.19282 1.395118,-2.38101 1.720346,-0.97039 0.221911,0.9625 0.820478,1.75 1.33015,1.75 0.509677,0 0.926681,0.49815 0.926681,1.10699 0,0.60885 -0.624067,0.86752 -1.386815,0.57482 -0.972878,-0.37333 -1.236546,0.0425 -0.883369,1.39301 0.606627,2.31975 -0.03703,2.46487 -1.754393,0.39557 z m 17.262423,-0.84772 c -0.786348,-1.72584 -0.775528,-2.68498 0.03948,-3.5 1.598897,-1.59889 2.761855,-1.38836 2.084295,0.37733 -0.316582,0.825 -0.119587,1.5 0.437766,1.5 0.557353,0 0.778013,0.9 0.490357,2 -0.693926,2.65358 -1.729253,2.52558 -3.051903,-0.37733 z m 32.762154,0.59958 c 0,-0.80603 3.650196,-4.22225 4.511432,-4.22225 0.26871,0 0.48857,0.70156 0.48857,1.55902 0,0.85746 -0.45318,1.27894 -1.00707,0.93662 -0.553879,-0.34232 -1.277024,0.0811 -1.606984,0.94098 -0.614444,1.60122 -2.385948,2.18452 -2.385948,0.78563 z M 34.0186,65.061633 c -0.332894,-0.53863 -0.08011,-1.96059 0.561744,-3.1599 1.065488,-1.99088 1.250771,-2.03089 2.129926,-0.45993 1.637868,2.92671 -0.960452,6.421 -2.69167,3.61983 z m 32.487227,-0.0207 c 0,-0.55 0.45,-1 1,-1 0.55,0 1,0.45 1,1 0,0.55 -0.45,1 -1,1 -0.55,0 -1,-0.45 -1,-1 z m 32.250002,0.29427 c -1.2375,-0.23835 -2.25,-0.86065 -2.25,-1.38287 0,-1.06873 4.981841,-0.1282 6.450001,1.21771 0.9881,0.90582 -0.12693,0.94967 -4.200001,0.16516 z m -47.556149,-0.9337 c -0.798931,-0.79893 0.104186,-2.36052 1.365164,-2.36052 0.517541,0 0.940983,0.675 0.940983,1.5 0,1.54641 -1.179963,1.98671 -2.306147,0.86052 z m 18.831011,-0.32028 c -0.864019,-1.39802 -0.696067,-1.58546 2.225136,-2.4834 1.694548,-0.52087 2.25,-0.2901 2.25,0.93479 0,0.93866 -0.470139,1.33585 -1.111803,0.93928 -0.611492,-0.37793 -1.455242,-0.13144 -1.875,0.54774 -0.577264,0.93403 -0.939857,0.94904 -1.488333,0.0616 z m -7.524864,-1.04024 c 0,-0.55 0.423442,-1 0.940983,-1 0.517541,0 1.219098,0.45 1.559017,1 0.339919,0.55 -0.08352,1 -0.940983,1 -0.857459,0 -1.559017,-0.45 -1.559017,-1 z m -50.552786,-0.91459 c 0.310886,-0.50302 0.103152,-1.06862 -0.461631,-1.25688 -1.407158,-0.46905 1.129648,-5.810521 2.764417,-5.820724 0.6875,-0.0043 1.25,0.637904 1.25,1.427094 0,2.45848 -1.898006,6.5651 -3.034266,6.5651 -0.596072,0 -0.829407,-0.41156 -0.51852,-0.91459 z m 17.901841,-2.89809 c -1.330288,-2.13013 -0.03333,-5.187316 2.200635,-5.187316 1.901548,0 1.867336,1.625996 -0.04969,2.361626 -1.480101,0.56797 -2.203936,2.87302 -0.75,2.38837 0.4125,-0.1375 0.89625,0.18875 1.075,0.725 0.594044,1.78214 -1.322386,1.55946 -2.475945,-0.28768 z m 8.254689,0.22244 c -0.680109,-1.77233 0.01874,-3.40976 1.455273,-3.40976 0.517541,0 0.940983,1.125 0.940983,2.5 0,2.79734 -1.459319,3.35138 -2.396256,0.90976 z m 10.062923,0.92358 c -0.366667,-0.36667 -0.666667,-1.13167 -0.666667,-1.7 0,-0.62661 0.465771,-0.56756 1.183333,0.15 0.650834,0.65083 0.950834,1.41583 0.666667,1.7 -0.284167,0.28416 -0.816667,0.21666 -1.183333,-0.15 z m -28.666667,-3.3 c 0,-2.726909 3.62019,-3.611535 4.910803,-1.2 0.848232,1.58493 0.58202,1.83333 -1.964817,1.83333 -1.620292,0 -2.945986,-0.285 -2.945986,-0.63333 z m 5.591246,-4.206526 c -2.000091,-2.855531 -0.363463,-5.310456 2.513759,-3.770613 2.264746,1.212055 2.403027,2.578629 0.457764,4.523891 -1.249641,1.249641 -1.637489,1.151322 -2.971523,-0.753278 z M 16.197718,52.68045 c -0.898218,-2.340718 1.877506,-5.431466 3.468312,-3.861939 0.939089,0.926527 1.006643,1.734417 0.245878,2.940481 -1.428601,2.264802 -3.044833,2.665776 -3.71419,0.921458 z m 54.308109,0.360537 c 0,-0.55 0.45,-1 1,-1 0.55,0 1,0.45 1,1 0,0.55 -0.45,1 -1,1 -0.55,0 -1,-0.45 -1,-1 z m -57.825671,-6.05778 c -0.872088,-2.357478 0.362899,-5.94222 2.047166,-5.94222 1.673771,0 2.013503,5.193574 0.442497,6.76458 -1.460412,1.460411 -1.670934,1.390874 -2.489663,-0.82236 z m 8.170748,-0.485348 c -0.930276,-2.424259 0.367785,-2.861912 1.609086,-0.542518 0.773977,1.446188 0.789195,2.085646 0.04964,2.085646 -0.586613,0 -1.333038,-0.694408 -1.658722,-1.543128 z M 8.0615998,41.131229 c -0.642825,-1.040112 0.333618,-4.097972 1.301216,-4.074929 2.2692052,0.05404 3.4614932,1.896013 2.2062642,3.408472 -1.476035,1.778513 -2.6789322,2.007076 -3.5074802,0.666457 z"
     style="fill:#000000" />
</svg>
