<?xml version="1.0" standalone="no"?>
<!DOCTYPE svg PUBLIC "-//W3C//DTD SVG 20010904//EN"
 "http://www.w3.org/TR/2001/REC-SVG-20010904/DTD/svg10.dtd">
<svg version="1.0" xmlns="http://www.w3.org/2000/svg"
 width="858.000000pt" height="617.000000pt" viewBox="0 0 858.000000 617.000000"
 preserveAspectRatio="xMidYMid meet">
<metadata>
Created by potrace 1.15, written by Peter Selinger 2001-2017
</metadata>
<g transform="translate(0.000000,617.000000) scale(0.100000,-0.100000)"
fill="#000000" stroke="none">
<path d="M4 6157 c-3 -8 -4 -141 -2 -297 2 -213 6 -284 15 -287 15 -5 37 -79
28 -93 -3 -6 -15 -10 -26 -10 -19 0 -19 -17 -19 -1022 l0 -1023 53 -105 c116
-229 349 -484 546 -597 130 -75 294 -144 338 -143 18 1 0 9 -119 52 -37 13
-114 52 -171 86 -130 78 -171 131 -198 254 -16 72 -25 91 -66 136 -16 16 -16
14 -2 -27 6 -17 14 -31 19 -31 4 0 5 -20 3 -45 -4 -33 0 -54 16 -85 38 -72 22
-67 -67 25 -128 132 -267 330 -311 445 -8 19 -18 39 -23 44 -10 12 -9 71 2
106 6 22 8 23 15 7 4 -9 5 -26 2 -37 -3 -11 -2 -20 3 -20 13 0 21 -33 10 -44
-18 -18 -11 -26 15 -14 21 9 35 6 98 -26 40 -20 78 -36 84 -36 12 0 62 -98 88
-170 l16 -45 -6 55 c-4 34 -18 78 -39 115 -29 52 -39 62 -81 78 -26 10 -66 32
-87 48 -31 25 -41 29 -53 19 -12 -10 -13 4 -10 97 2 59 1 101 -1 93 -3 -8 -9
-24 -14 -35 -5 -11 -11 -27 -13 -35 -4 -10 -6 -8 -6 6 -1 12 6 38 14 57 8 20
15 44 15 54 -1 16 -2 16 -13 3 -7 -9 -19 -15 -27 -15 -13 0 -15 42 -17 307
l-1 308 39 -21 c22 -11 45 -30 51 -44 6 -13 19 -26 29 -28 41 -11 45 -58 23
-318 -5 -62 -4 -78 10 -91 9 -9 16 -25 16 -35 0 -18 26 -153 36 -185 3 -10 10
-18 16 -18 10 0 8 22 -8 104 -6 26 -4 28 15 23 31 -8 23 24 -9 36 -8 3 1 6 21
6 20 1 50 6 68 12 28 10 35 8 68 -17 35 -27 55 -44 96 -81 9 -9 17 -26 18 -37
0 -12 7 -37 15 -56 13 -34 14 -34 8 30 -4 44 -11 68 -22 75 -9 6 -36 29 -61
51 -26 23 -61 49 -79 58 -32 17 -72 14 -72 -5 0 -5 -7 -9 -15 -9 -17 0 -55 35
-55 50 0 6 -10 10 -22 11 l-23 0 23 9 c12 5 22 14 22 19 0 18 34 22 47 5 11
-15 16 -16 40 -4 16 8 35 13 43 13 52 -1 59 -3 54 -20 -3 -10 8 -2 25 17 31
35 40 35 20 -1 -9 -18 -8 -19 18 -13 15 3 33 13 40 22 10 12 15 13 28 2 9 -8
13 -20 9 -29 -12 -30 -4 -70 27 -126 23 -42 32 -76 39 -138 4 -45 15 -100 23
-122 22 -61 40 -151 33 -164 -4 -6 -3 -11 2 -11 5 0 15 -35 22 -77 6 -42 15
-84 18 -92 3 -9 -7 -2 -22 14 -27 29 -27 29 -20 5 8 -29 33 -67 63 -94 17 -16
30 -18 75 -12 62 7 77 -2 101 -60 10 -25 22 -36 45 -40 16 -4 30 -10 30 -14 0
-5 16 -18 35 -30 19 -12 35 -28 35 -36 0 -17 17 -19 22 -3 3 8 15 6 41 -4 26
-11 50 -14 78 -9 l42 7 -64 13 c-109 22 -111 23 -133 77 -11 28 -25 53 -30 57
-7 5 -7 8 -1 8 6 0 9 42 7 112 -3 88 1 133 18 203 11 50 25 110 31 135 5 25
14 53 19 62 6 10 11 57 11 105 1 49 4 78 6 65 8 -41 23 -12 23 46 0 39 6 67
20 90 11 18 20 44 20 57 0 26 15 34 23 13 3 -7 6 2 6 20 1 36 21 45 22 10 l0
-23 11 23 c8 15 17 21 29 17 14 -5 19 2 26 37 6 31 14 44 28 47 17 3 17 1 6
-12 -7 -9 -11 -26 -8 -39 4 -20 4 -19 6 6 1 20 5 27 15 23 20 -8 31 9 46 74
11 49 16 57 44 65 23 7 33 17 41 42 11 37 17 39 42 13 10 -10 32 -22 49 -25
23 -5 40 -22 71 -69 23 -34 54 -77 70 -96 15 -18 37 -52 48 -74 22 -43 45 -60
45 -32 0 9 -7 42 -16 72 -11 38 -14 75 -10 116 8 90 16 88 36 -8 33 -157 30
-411 -6 -480 -8 -15 -14 -36 -14 -47 0 -11 -14 -33 -30 -50 -36 -35 -68 -33
-111 8 l-26 24 -46 -22 c-26 -13 -47 -29 -47 -37 0 -22 82 -90 118 -97 18 -3
35 -10 38 -15 7 -12 74 -11 74 1 0 6 10 10 23 10 18 0 19 2 7 10 -11 8 -9 9
11 5 26 -6 26 -6 88 71 18 23 30 53 46 115 31 123 36 165 35 322 -1 135 2 157
15 157 8 0 15 -4 15 -10 0 -5 7 -10 16 -10 8 0 12 -5 8 -11 -4 -8 1 -9 15 -4
12 4 27 2 34 -3 24 -19 96 -25 277 -23 153 2 197 6 253 23 67 20 155 72 209
122 29 28 36 24 58 -34 41 -108 150 -287 150 -247 0 9 -4 19 -10 22 -5 3 -10
11 -10 17 0 6 10 4 24 -5 17 -11 26 -13 34 -5 8 8 10 -5 8 -47 -3 -58 -3 -58
12 -29 14 24 17 26 20 10 2 -10 -1 -23 -6 -28 -8 -8 -6 -18 6 -33 15 -21 19
-21 39 -8 21 14 23 14 23 -6 0 -14 5 -19 15 -15 8 4 15 2 15 -4 0 -16 -43 -22
-59 -9 -12 10 -13 9 -3 -8 6 -11 55 -63 109 -116 140 -135 369 -284 468 -303
17 -3 23 -3 15 1 -25 11 -40 31 -40 52 0 12 5 21 10 21 6 0 10 -9 10 -21 0
-12 8 -23 19 -26 11 -3 21 -15 23 -27 2 -14 11 -22 28 -24 14 -2 30 -9 36 -17
6 -8 24 -12 45 -11 49 4 49 4 49 20 0 24 41 31 57 10 15 -21 -8 -20 395 -13
210 4 227 5 222 21 -5 15 -2 16 26 6 22 -7 35 -7 42 0 7 7 17 7 31 -1 15 -9
21 -9 24 1 6 17 23 15 23 -3 0 -10 -10 -15 -33 -15 -18 0 -42 -7 -53 -15 -10
-8 -36 -15 -56 -15 -20 0 -48 -4 -62 -9 -13 -6 -116 -15 -228 -21 -471 -24
-734 -53 -1108 -121 -79 -14 -88 -12 -82 16 4 24 8 25 78 26 93 2 87 1 108 22
10 9 23 17 29 17 11 1 123 19 212 34 17 3 73 10 125 16 102 12 128 20 61 20
-75 0 -296 128 -480 277 -47 38 -74 71 -101 120 -54 101 -89 153 -101 153 -6
0 -19 -5 -30 -10 -14 -8 -19 -7 -19 2 0 15 -62 108 -72 108 -3 0 -9 -30 -13
-67 -7 -78 -44 -273 -54 -288 -4 -5 -14 -26 -21 -45 -54 -141 -164 -333 -277
-482 -40 -54 -69 -98 -63 -98 6 0 13 7 16 15 3 8 16 17 27 21 12 4 45 17 72
30 57 26 112 46 205 74 36 11 78 24 94 30 17 5 35 6 45 0 9 -4 32 -5 51 0 24
5 28 8 13 9 -21 1 -28 11 -24 34 4 21 -21 87 -33 87 -16 0 -46 -32 -46 -48 0
-8 -18 -12 -50 -12 l-50 0 0 60 c0 92 45 250 107 378 54 110 67 124 91 100 9
-9 12 -8 12 5 0 10 -6 20 -14 23 -12 5 -12 10 2 35 10 16 20 29 24 29 10 0 38
-55 38 -73 0 -8 6 -20 14 -26 13 -11 66 -110 66 -124 0 -3 -10 -8 -22 -10 -18
-3 -17 -5 7 -6 29 -1 32 -6 67 -104 44 -120 68 -209 68 -252 0 -30 -1 -30 -55
-33 -52 -3 -55 -2 -55 21 0 34 -23 52 -49 37 -25 -13 -33 -40 -29 -98 l3 -43
-110 -29 c-103 -26 -213 -60 -260 -80 -11 -5 -40 -15 -65 -23 -25 -8 -76 -27
-114 -41 -57 -22 -67 -24 -62 -10 3 9 -15 -2 -41 -23 -109 -90 -289 -198 -428
-257 -100 -43 -223 -86 -242 -86 -23 0 -14 18 15 29 15 5 43 19 62 30 19 11
85 44 145 74 214 105 377 204 371 223 -3 6 3 11 11 10 20 -1 136 131 214 244
62 91 149 253 149 279 0 9 -15 -13 -33 -49 -66 -133 -142 -244 -259 -380 -38
-45 -58 -58 -105 -74 -32 -10 -99 -38 -150 -62 -50 -24 -98 -42 -106 -38 -8 3
-17 -1 -20 -10 -7 -17 -89 -60 -133 -69 -21 -4 -40 0 -63 14 -37 22 -51 20
-26 -4 24 -24 19 -27 -42 -28 -62 0 -104 -11 -86 -22 5 -4 25 -2 44 3 44 13
119 13 119 0 0 -5 -6 -10 -14 -10 -14 0 -163 -74 -223 -112 -24 -14 -57 -21
-120 -25 -49 -3 -106 -9 -128 -13 -32 -6 -19 -8 58 -9 102 -1 113 -8 54 -35
-55 -24 -74 -25 -220 -10 -183 19 -180 18 -192 26 -5 3 -30 9 -55 13 -77 13
-228 73 -405 160 -93 46 -196 91 -228 100 -67 19 -89 46 -61 76 18 20 19 20
-38 84 -113 128 -187 231 -239 333 -11 23 -23 42 -25 42 -2 0 -4 -138 -4 -306
0 -212 3 -303 11 -299 19 13 59 -5 72 -33 24 -47 -7 -113 -59 -126 l-24 -6 0
-1221 c0 -1159 1 -1221 17 -1214 10 3 32 9 48 12 46 10 157 69 204 109 49 42
101 147 101 205 0 20 -8 57 -19 81 -15 35 -28 48 -62 63 -65 30 -132 26 -169
-10 -73 -70 -60 -183 23 -206 54 -14 99 2 123 46 17 32 17 36 1 70 -14 29 -22
35 -47 35 -17 0 -39 -9 -50 -20 -22 -22 -24 -29 -11 -49 7 -11 10 -9 16 8 4
12 16 26 28 30 49 19 65 -43 21 -78 -43 -34 -86 -26 -109 20 -40 77 13 149
111 149 30 0 44 -7 76 -40 51 -55 52 -98 4 -162 -36 -47 -82 -68 -149 -68 -50
0 -100 46 -126 114 -18 49 -19 57 -5 102 18 60 27 72 83 112 79 58 180 38 254
-49 20 -23 39 -54 42 -70 17 -76 25 -27 25 151 l0 192 -47 -35 c-27 -19 -70
-47 -98 -62 -27 -15 -54 -31 -59 -36 -19 -18 -23 -8 -15 34 5 23 8 157 8 298
-1 235 -2 259 -20 288 -11 18 -33 37 -49 43 -17 5 -30 14 -30 18 0 11 73 19
84 9 17 -15 33 -10 51 17 12 18 13 29 6 38 -9 10 -3 20 23 40 34 26 89 35 100
17 14 -22 54 1 70 40 l12 29 32 -28 c49 -43 61 -101 62 -318 0 -103 3 -190 6
-195 16 -26 -79 -119 -121 -119 -7 0 -15 -7 -19 -15 -8 -21 12 -19 59 6 107
56 150 129 169 288 3 24 7 46 9 47 2 2 1630 5 3619 6 l3616 3 5 -65 c7 -80 37
-164 76 -208 15 -19 54 -50 86 -70 l57 -37 -1 -207 c-1 -133 2 -209 9 -213 6
-3 10 3 10 16 0 12 16 51 36 87 29 51 44 68 75 81 21 9 39 19 39 23 0 4 -27 7
-61 5 -36 -2 -63 1 -65 8 -1 5 -5 63 -7 128 l-4 117 131 1 c76 0 123 4 111 8
-11 5 -49 7 -85 6 -84 -3 -110 2 -103 22 3 8 0 19 -8 23 -11 8 -11 10 1 15 12
4 14 24 10 118 -3 61 -7 256 -8 432 -1 200 -6 321 -12 323 -6 2 -10 7 -10 10
0 9 203 2 212 -6 6 -6 18 -587 17 -820 0 -30 4 -59 9 -65 5 -7 12 -24 16 -39
5 -22 12 -28 34 -28 25 0 27 -3 27 -44 0 -56 -11 -68 -24 -25 l-9 34 -2 -35
c0 -19 -3 -59 -6 -88 -4 -39 -2 -59 10 -77 l16 -25 -62 -1 c-45 0 -56 -3 -38
-8 45 -14 89 -41 125 -76 30 -30 35 -44 41 -99 6 -54 3 -71 -15 -110 -33 -67
-75 -89 -158 -84 -60 4 -68 7 -99 40 -64 70 -67 162 -7 220 29 29 40 33 80 31
81 -3 124 -59 108 -141 -15 -79 -99 -109 -136 -48 -10 17 -17 39 -14 51 2 11
4 23 4 27 2 13 39 28 55 22 9 -3 16 -17 16 -30 0 -26 15 -32 23 -10 3 8 -3 27
-15 41 -15 20 -28 25 -52 23 -60 -6 -73 -102 -21 -154 75 -75 201 41 162 148
-26 72 -65 98 -144 98 -72 0 -140 -103 -128 -193 20 -157 115 -261 284 -311
70 -21 95 -21 87 -1 -3 9 -6 523 -6 1144 -1 621 -4 1155 -7 1185 l-6 56 -115
0 c-126 0 -146 -11 -30 -16 40 -1 78 -3 83 -3 24 -2 -23 -21 -50 -20 -46 2
-55 0 -55 -11 0 -5 20 -10 44 -10 42 0 44 -2 50 -33 3 -17 5 -70 5 -116 0 -53
4 -87 12 -91 8 -6 8 -9 -2 -12 -19 -6 -21 -168 -1 -168 7 0 12 -8 10 -17 -2
-13 -16 -20 -43 -23 -22 -3 -40 -10 -40 -17 0 -7 -7 -21 -16 -31 -13 -16 -32
-19 -97 -21 -72 -2 -86 1 -118 22 -23 16 -31 27 -22 30 12 5 -27 11 -60 10
-26 -2 -6 32 23 38 23 5 25 7 8 8 -18 1 -23 7 -23 26 0 14 6 25 13 25 9 0 9 2
1 8 -7 4 -14 40 -18 80 -4 62 -3 73 9 68 12 -4 15 4 15 36 0 23 3 38 8 34 4
-4 7 -44 8 -89 0 -45 4 -80 9 -77 4 3 7 33 6 68 l-2 62 38 0 c28 0 34 3 23 10
-8 5 -25 7 -38 3 -20 -5 -23 -2 -20 13 3 16 11 18 46 16 25 -2 42 1 42 7 0 6
-21 11 -51 11 -48 0 -50 1 -43 23 6 22 6 22 -15 -2 -11 -13 -21 -33 -21 -45 0
-12 -4 -16 -9 -11 -6 6 -7 29 -4 53 5 36 9 42 24 37 13 -4 19 -1 19 8 0 10 8
13 24 10 13 -3 27 0 30 6 5 7 -6 11 -33 11 -22 0 -42 -5 -44 -12 -4 -10 -8 -9
-16 2 -17 24 -13 29 27 33 24 3 21 4 -10 2 -35 -1 -48 2 -48 11 0 8 5 14 10
14 19 0 10 32 -10 37 -52 14 5 23 139 23 111 0 148 3 148 13 0 6 4 20 8 31 7
16 6 17 -13 7 -14 -7 -22 -8 -22 -2 0 6 14 18 31 26 24 13 34 14 45 4 8 -6 14
-16 14 -21 0 -6 -7 -5 -15 2 -8 7 -15 8 -15 2 0 -16 29 -35 44 -29 9 4 13 15
10 29 -2 13 -1 16 2 8 4 -8 17 -25 30 -36 l24 -21 -46 -1 c-54 -1 -74 -12 -23
-12 19 0 51 -3 72 -6 l37 -7 -1 49 c-1 29 -4 38 -6 22 -5 -31 -7 -32 -33 -18
-23 12 -43 79 -34 114 7 30 49 60 75 53 10 -3 19 -1 19 4 0 5 -6 9 -13 9 -11
0 -12 11 -7 44 6 41 4 45 -22 60 -92 55 -324 10 -478 -92 -80 -54 -271 -146
-375 -182 -100 -34 -228 -65 -320 -76 -33 -4 -67 -8 -75 -10 -8 -1 -43 -3 -77
-3 -50 -1 -62 -4 -66 -18 -4 -17 -5 -17 -6 0 -1 14 -10 17 -58 15 -57 -2 -57
-2 -10 -5 l47 -4 0 -70 c0 -39 -5 -79 -10 -90 -10 -17 -7 -19 37 -21 41 -1 43
-2 13 -5 -41 -5 -52 -13 -41 -32 7 -10 13 -10 29 -2 11 6 27 11 34 11 7 -1 -3
-8 -22 -18 -19 -9 -35 -23 -36 -29 -1 -7 -2 -109 -3 -227 l-1 -214 -27 -10
c-20 -8 31 -10 182 -9 130 1 162 3 85 4 -68 2 -129 8 -134 13 -7 7 87 10 262
10 235 0 272 -2 272 -15 0 -12 16 -15 83 -15 91 0 130 14 135 48 3 22 -13 31
-20 11 -6 -17 -40 20 -36 39 6 28 36 38 66 22 53 -30 37 -126 -26 -152 -17 -7
-126 -12 -307 -13 -154 -1 -338 -5 -409 -10 l-128 -8 5 -72 c5 -75 2 -88 -23
-98 -8 -4 1 -6 20 -6 19 1 58 1 86 0 49 -1 51 -2 51 -31 0 -16 -4 -30 -9 -30
-4 0 -8 -6 -8 -13 0 -10 -24 -16 -92 -20 -114 -7 -145 -1 -165 29 -15 23 -14
26 7 44 25 22 20 26 -11 10 -13 -8 -19 -21 -19 -46 0 -31 4 -37 37 -50 20 -9
56 -14 80 -12 l43 3 0 -42 c0 -24 0 -46 0 -50 0 -5 -14 -9 -33 -11 -33 -3 -33
-3 -30 40 2 42 2 42 -6 8 -9 -45 -20 -62 -33 -54 -5 3 -1265 6 -2799 5 l-2790
0 3 577 c2 566 4 602 33 602 3 0 32 17 63 37 87 56 180 107 367 202 168 85
193 97 310 142 33 13 66 27 73 32 7 6 15 7 19 3 12 -12 -39 -43 -257 -158 -58
-30 -125 -66 -150 -80 -25 -14 -72 -40 -105 -58 -79 -43 -98 -57 -88 -62 4 -3
2 -3 -5 -1 -16 4 -56 -16 -139 -70 l-63 -40 0 -225 c0 -124 3 -222 7 -218 5 4
10 104 13 223 l5 215 55 34 c30 18 86 41 125 50 39 9 79 19 90 23 11 5 45 16
75 26 59 18 111 41 201 85 70 34 292 174 309 195 7 8 18 15 25 15 11 0 98 34
190 75 56 24 223 77 365 115 86 23 291 64 400 80 36 5 97 14 135 19 273 41
381 47 430 27 21 -9 91 -21 154 -26 232 -19 415 -9 573 31 93 24 108 25 193
10 33 -6 92 -15 130 -21 39 -6 84 -14 100 -17 22 -4 27 -2 19 6 -10 12 -221
50 -284 52 l-35 1 43 19 c39 18 51 19 145 10 152 -16 254 -29 330 -43 63 -12
68 -15 76 -43 10 -39 0 -41 -92 -21 -40 8 -92 17 -117 20 -75 10 -10 -12 105
-35 55 -11 136 -29 180 -40 75 -18 127 -24 98 -12 -7 2 -13 9 -13 15 0 6 39 8
108 5 103 -4 138 -12 391 -83 24 -7 24 -7 5 12 -36 36 -129 163 -160 219 -73
132 -113 226 -126 294 -13 72 -35 148 -53 186 -18 37 -45 242 -45 338 0 74
-10 105 -29 93 -6 -4 -11 -3 -11 2 0 6 7 12 14 15 24 9 17 88 -8 109 -21 17
-21 18 -1 19 11 1 -5 5 -35 8 -40 5 -60 2 -73 -8 -16 -13 -21 -12 -45 13 l-27
28 65 -6 c36 -3 56 -2 45 1 -11 3 -24 9 -30 13 -11 8 -103 25 -122 21 -7 -1
-13 3 -13 8 0 16 49 25 64 12 17 -14 128 -16 152 -3 9 5 24 8 33 7 9 -1 10 0
4 2 -7 3 -13 9 -13 15 0 5 7 8 15 4 8 -3 15 -2 15 2 0 15 -124 12 -147 -3 -16
-11 -29 -12 -46 -6 -14 6 -34 7 -45 4 -11 -2 -23 0 -26 6 -5 7 4 11 23 11 17
0 31 5 31 10 0 16 -76 12 -90 -5 -10 -12 -10 -15 4 -15 22 0 20 -27 -3 -40
-33 -17 -37 -12 -39 50 -2 59 -1 60 26 59 23 -2 24 -2 5 -6 -13 -2 -23 -9 -23
-14 0 -12 53 -12 65 0 6 6 39 12 75 14 l65 3 -67 2 c-37 1 -70 6 -73 12 -3 6
-20 10 -37 10 -26 0 -29 2 -18 15 8 9 24 13 46 10 19 -2 34 0 34 5 0 6 -16 10
-35 10 -19 0 -35 5 -35 10 0 6 4 10 8 10 4 0 8 8 9 18 1 9 5 42 8 73 6 42 3
70 -9 105 -13 38 -13 49 -4 56 10 6 10 10 -2 18 -11 7 -7 10 18 10 24 0 32 5
33 18 0 14 3 13 16 -6 15 -21 16 -21 29 -5 12 17 14 17 31 -1 17 -18 17 -18
-6 -11 -17 5 -22 4 -19 -6 5 -15 92 -33 115 -25 7 3 13 10 13 15 0 6 -6 8 -14
5 -8 -3 -17 -1 -21 5 -4 7 6 11 27 11 19 0 40 6 47 13 11 10 13 9 9 -3 -4 -11
1 -16 13 -16 13 0 17 5 14 17 -7 20 14 30 45 22 17 -4 21 -2 18 8 -7 21 -81
23 -120 3 -36 -20 -65 -19 -88 1 -23 19 -85 39 -103 32 -8 -3 -18 -20 -22 -37
-6 -26 -11 -30 -33 -27 -32 4 -43 36 -42 129 0 117 -25 195 -98 306 -19 29
-33 55 -30 57 3 3 19 0 36 -6 38 -13 71 -4 192 56 177 87 240 127 240 152 0
35 27 4 65 -77 77 -158 112 -275 151 -495 24 -141 -13 -580 -56 -657 -6 -10
-10 -26 -9 -35 1 -35 26 42 70 217 10 41 19 103 19 137 0 44 6 74 20 100 25
45 109 163 164 227 21 26 36 49 34 52 -8 7 -109 -116 -166 -201 l-47 -70 -3
57 c-3 55 -1 59 51 130 30 40 80 101 110 135 51 57 57 61 67 44 5 -11 10 -28
11 -38 1 -27 85 -93 118 -93 16 0 34 -6 40 -14 7 -8 23 -17 36 -20 34 -9 31
-32 -5 -51 -31 -16 -37 -29 -20 -40 22 -13 9 -53 -31 -94 -22 -22 -49 -46 -59
-51 -22 -12 -32 -80 -17 -120 14 -38 64 -51 102 -26 50 33 54 16 20 -94 -49
-159 -52 -177 -49 -245 5 -120 36 -235 64 -235 6 0 10 -7 10 -15 0 -8 7 -15
15 -15 8 0 15 -7 15 -15 0 -8 7 -15 15 -15 8 0 15 -5 15 -10 0 -10 17 -28 89
-93 17 -16 39 -29 50 -30 11 0 17 -5 15 -9 -3 -4 1 -8 10 -8 8 0 16 -4 18 -9
2 -6 15 -12 30 -15 15 -2 31 -7 36 -10 9 -6 7 -212 -3 -279 -4 -26 -11 -50
-16 -52 -4 -3 -11 -27 -14 -53 -20 -156 -31 -206 -63 -287 -19 -49 -41 -99
-48 -110 -8 -11 -14 -25 -14 -33 0 -7 -13 -24 -28 -37 -15 -13 -37 -41 -47
-63 l-19 -39 -36 14 c-19 8 -48 20 -65 28 -82 36 -488 177 -583 201 -63 17
-82 17 -82 4 0 -5 8 -10 17 -10 9 0 30 -4 47 -10 17 -5 65 -19 106 -31 81 -22
153 -46 185 -60 11 -5 45 -18 75 -29 30 -11 66 -26 80 -32 41 -18 63 -26 105
-39 39 -12 58 -20 220 -94 111 -51 161 -57 63 -8 -43 21 -77 41 -78 45 0 4 20
10 45 14 25 3 45 11 44 18 -1 6 -1 25 0 43 1 24 5 31 15 27 16 -6 36 24 36 56
0 11 11 53 25 92 14 39 25 80 25 91 0 26 39 124 84 210 20 38 36 77 36 88 0
10 3 19 8 19 4 0 6 -20 4 -44 -2 -25 1 -61 8 -81 7 -20 12 -81 12 -136 1 -79
-2 -103 -16 -118 -9 -10 -18 -34 -20 -53 -2 -25 -16 -48 -49 -83 -26 -27 -47
-55 -47 -62 0 -16 -9 -14 75 -20 l70 -5 12 39 c7 22 10 49 7 60 -4 14 0 22 14
25 18 5 20 17 25 124 3 66 8 133 11 149 3 17 7 84 10 150 2 66 9 132 15 147 6
15 8 35 4 44 -4 10 0 20 10 25 11 6 18 30 23 69 4 33 12 60 18 61 47 3 107 -1
123 -9 10 -5 38 -13 63 -16 25 -3 67 -13 94 -21 50 -15 141 -20 170 -9 21 8
20 21 -1 27 -16 4 -16 5 -1 6 9 0 18 7 21 14 2 6 3 4 2 -5 -2 -12 3 -18 16
-18 13 0 19 -6 17 -17 -3 -19 6 -20 67 -9 29 6 36 3 46 -16 10 -20 81 -109
115 -145 6 -7 15 -9 19 -5 5 4 5 2 1 -5 -4 -7 1 -24 10 -39 14 -20 24 -25 46
-22 34 5 38 -13 6 -27 -15 -7 -24 -20 -26 -40 -3 -39 -20 -110 -37 -155 -44
-121 -60 -157 -76 -175 -10 -11 -29 -45 -43 -76 -18 -42 -32 -59 -55 -69 -28
-11 -111 -95 -111 -112 0 -19 51 -29 151 -30 61 0 113 2 116 6 4 3 -12 6 -35
6 -34 0 -42 3 -42 19 0 10 -3 32 -6 49 -6 29 -4 31 27 34 32 3 35 7 55 63 24
70 30 86 55 141 11 22 19 46 19 53 0 15 100 151 112 151 4 0 8 5 8 11 0 6 12
20 26 31 37 30 30 90 -18 149 -41 51 -49 70 -53 122 -2 21 -11 47 -21 58 -16
17 -16 19 -1 19 10 0 17 -4 17 -9 0 -14 28 -22 114 -31 43 -5 86 -16 95 -24 9
-8 30 -18 46 -22 17 -4 72 -32 123 -62 125 -74 211 -174 216 -248 0 -13 4 -24
7 -24 12 0 21 -35 25 -100 5 -62 3 -67 -31 -114 -19 -27 -35 -59 -35 -71 0
-20 7 -23 67 -29 38 -3 78 -9 89 -12 13 -3 23 -1 25 8 9 30 -2 682 -11 668 -5
-8 -10 -38 -10 -67 0 -28 -4 -55 -10 -58 -5 -3 -10 -11 -10 -16 0 -6 4 -7 10
-4 7 4 10 -57 10 -176 0 -100 -3 -179 -7 -176 -11 11 -33 -14 -32 -37 0 -20 1
-19 10 3 6 14 13 21 18 15 11 -12 19 -144 9 -144 -4 0 -8 14 -8 31 0 27 -2 30
-15 19 -9 -7 -15 -8 -15 -2 0 5 -11 13 -25 16 -28 7 -33 23 -9 28 11 2 18 16
21 38 2 19 5 47 7 61 1 14 6 32 11 39 11 18 7 78 -6 99 -7 12 -8 8 -4 -16 3
-17 2 -34 -3 -37 -14 -9 -22 32 -15 81 4 28 1 48 -7 58 -8 10 -9 15 -2 15 6 0
9 7 6 15 -4 8 -12 15 -20 15 -8 0 -14 8 -14 18 0 9 -11 38 -24 64 -13 26 -21
49 -18 52 10 10 42 -26 42 -48 1 -18 2 -18 10 -5 17 29 -3 73 -36 79 -16 4
-40 12 -52 19 -13 7 -26 10 -30 7 -3 -3 0 -6 6 -6 7 0 12 -4 12 -9 0 -5 -9 -7
-20 -4 -16 4 -19 11 -14 27 6 19 5 20 -11 6 -17 -13 -18 -13 -13 1 7 18 -55
82 -68 70 -4 -3 -4 0 0 7 4 7 0 25 -11 40 -15 23 -18 50 -20 192 -1 148 -4
172 -26 238 -14 41 -34 80 -44 87 -43 32 -271 124 -323 130 -91 11 -221 6
-285 -11 -76 -21 -270 -28 -355 -14 -36 6 -90 12 -122 13 -31 1 -54 5 -52 8 4
7 -44 24 -58 21 -4 -1 -19 3 -34 8 -27 11 -144 -5 -144 -19 0 -9 -63 -7 -77 2
-15 10 -17 73 -3 82 6 3 10 28 10 54 0 26 9 81 19 121 21 79 17 141 -14 202
-15 31 -15 31 37 42 28 6 124 93 114 103 -3 4 -12 -1 -19 -10 -40 -54 -127
-87 -127 -48 0 41 59 88 136 107 20 5 22 3 17 -18 -5 -23 -5 -23 10 -3 32 40
14 73 -22 41 -9 -7 -41 -21 -71 -30 -64 -21 -78 -31 -93 -66 -10 -25 -11 -25
-14 -2 -3 12 3 29 11 38 9 8 16 22 16 29 0 8 6 12 14 9 7 -3 31 4 52 15 21 12
42 21 47 21 4 0 40 22 80 49 78 53 133 107 189 186 46 64 72 88 127 117 27 14
51 36 60 55 10 21 21 31 31 27 8 -3 48 -9 89 -15 107 -13 220 -37 266 -57 95
-40 261 -127 323 -169 217 -148 417 -371 517 -578 l53 -110 7 -410 c4 -225 11
-417 16 -425 5 -9 8 138 6 358 -2 334 2 410 16 355 3 -10 5 -2 6 19 2 76 -134
348 -241 479 -139 170 -315 312 -522 420 -102 53 -288 119 -338 119 -18 1 -62
7 -98 15 -36 8 -81 14 -102 15 -20 0 -39 6 -41 13 -4 10 -6 10 -6 0 -1 -8 -15
-13 -34 -13 -31 0 -33 2 -29 29 4 26 7 28 45 27 40 -1 42 0 47 33 3 19 11 36
18 39 9 3 10 -3 2 -23 -13 -35 2 -55 40 -55 56 0 309 -57 384 -87 72 -28 69
-28 61 -3 -4 13 1 31 14 49 12 16 21 34 21 40 0 6 9 16 19 23 11 6 17 18 13
26 -3 10 -1 13 6 8 7 -4 12 -1 12 8 0 9 4 16 10 16 5 0 6 7 3 17 -4 11 -3 14
5 9 7 -4 12 -1 12 9 0 10 5 13 12 9 8 -5 9 -2 5 10 -7 17 15 61 25 51 2 -3 5
2 5 10 0 27 37 86 51 80 10 -3 11 1 7 16 -5 13 -3 19 3 15 5 -3 9 2 8 12 -2
31 39 25 77 -11 l36 -33 12 30 c7 17 28 55 46 84 40 64 41 79 6 93 -74 30 -74
29 -55 54 9 13 20 21 24 18 4 -2 5 3 2 11 -3 9 -1 16 5 16 6 0 11 10 11 23 0
18 2 19 10 7 8 -13 10 -12 10 3 0 9 5 17 12 17 6 0 8 3 5 7 -4 3 -2 12 5 20 9
11 -7 13 -104 12 l-114 -2 -24 -46 c-34 -66 -47 -79 -75 -73 -44 8 -52 29 -27
73 12 21 22 39 22 41 0 5 -283 -2 -298 -7 -10 -3 -9 -9 3 -22 41 -47 65 -82
65 -97 0 -20 -7 -20 -28 1 -16 16 -17 15 -20 -5 -2 -12 -10 -22 -19 -22 -13 0
-13 3 -3 15 7 9 9 19 5 23 -4 4 -15 -4 -24 -18 -9 -13 -26 -34 -38 -46 -12
-12 -19 -25 -16 -28 4 -3 -3 -6 -14 -6 -31 0 -44 -22 -25 -40 14 -13 15 -12 8
5 -4 11 -4 16 0 13 4 -4 16 -2 28 4 11 6 0 -11 -26 -36 -29 -28 -53 -44 -60
-40 -8 5 -9 2 -5 -9 5 -13 1 -17 -16 -19 -47 -3 -73 4 -89 24 -10 11 -18 15
-18 8 0 -8 -9 -10 -25 -6 -21 5 -25 3 -25 -17 0 -13 5 -39 12 -57 10 -29 12
-31 18 -14 4 10 3 27 -2 37 -6 12 -5 17 5 17 9 0 13 -12 13 -39 -1 -22 2 -37
7 -34 4 2 7 17 7 34 0 27 2 29 41 29 32 0 40 -3 36 -15 -4 -8 -2 -17 3 -20 6
-4 10 3 10 14 0 17 6 21 30 21 26 0 30 -4 30 -26 0 -14 4 -23 9 -20 5 3 7 15
4 26 -4 16 0 20 21 20 18 0 26 -5 26 -17 0 -13 3 -14 12 -5 7 7 16 12 20 12
12 0 10 -48 -2 -55 -6 -3 -10 -2 -10 2 0 10 -110 14 -125 5 -5 -4 -30 -8 -54
-9 -49 -4 -73 -17 -65 -38 3 -7 1 -16 -5 -20 -7 -3 -11 2 -11 14 0 24 -25 28
-33 7 -4 -11 -1 -13 11 -10 14 5 15 4 2 -5 -8 -6 -15 -17 -15 -24 0 -15 -65
-84 -65 -70 0 4 -5 1 -10 -7 -5 -8 -10 -40 -11 -70 l0 -55 -15 53 c-7 29 -13
56 -13 60 1 4 0 16 -1 27 -1 15 -7 10 -21 -20 -24 -52 -24 -72 1 -80 11 -3 21
-12 21 -18 1 -7 3 -22 4 -34 1 -13 7 -28 13 -35 14 -18 10 -67 -6 -73 -10 -4
-11 1 -6 18 4 12 9 29 11 37 3 8 -7 2 -21 -15 -28 -32 -33 -23 -17 33 6 19 6
32 1 32 -5 0 -7 6 -4 14 3 8 1 17 -5 21 -7 4 -11 -5 -12 -24 -1 -17 -3 -35 -4
-41 -1 -5 -3 -19 -4 -30 0 -11 -6 -20 -12 -20 -5 0 -7 5 -4 10 4 6 7 42 7 80
0 54 -5 75 -20 94 -11 14 -21 23 -24 21 -9 -9 4 -65 16 -65 7 0 10 -17 8 -50
-4 -56 -22 -69 -22 -16 0 19 -4 38 -10 41 -6 4 -10 -18 -11 -57 0 -35 -3 -56
-6 -48 -3 8 -17 27 -31 43 -26 27 -26 27 -3 27 20 0 21 3 15 38 -3 20 -12 50
-20 66 -8 16 -14 33 -14 38 0 15 19 8 23 -9 4 -15 5 -14 6 2 1 22 -16 45 -32
45 -6 0 -7 -20 -3 -47 4 -27 8 -56 9 -65 1 -10 5 -18 9 -18 4 0 8 -4 8 -10 0
-22 -27 -7 -76 41 -48 47 -81 59 -68 24 4 -10 0 -12 -16 -8 -18 5 -21 2 -18
-13 2 -10 13 -20 25 -22 12 -2 23 -11 25 -20 2 -9 12 -17 23 -17 13 0 20 -6
19 -17 -1 -10 3 -18 8 -18 5 0 6 -9 3 -20 -3 -11 -2 -20 3 -20 6 0 12 4 14 10
2 5 3 -34 3 -88 0 -83 -3 -102 -23 -134 -17 -27 -19 -38 -10 -42 7 -3 3 -3 -8
-1 -16 4 -23 0 -27 -16 -4 -15 -2 -19 9 -15 11 4 12 1 6 -12 -5 -9 -7 -23 -4
-31 2 -7 -2 -17 -9 -22 -22 -14 -33 -11 -20 5 10 12 8 13 -10 9 -18 -5 -21 -3
-16 11 5 13 3 16 -11 12 -15 -5 -17 2 -17 57 0 43 -6 74 -21 101 -26 50 -50
62 -39 20 17 -67 17 -122 0 -154 -9 -17 -14 -38 -11 -45 3 -9 0 -12 -8 -9 -7
3 -16 -2 -19 -10 -4 -9 -18 -16 -33 -16 -47 0 -81 50 -129 188 -3 7 -10 10
-16 6 -19 -11 -5 -113 25 -187 l28 -68 -24 -19 c-24 -20 -52 -18 -76 7 -11 10
-13 28 -9 64 6 46 -7 109 -22 109 -14 0 -31 -24 -31 -44 0 -17 2 -18 10 -6 12
19 17 13 25 -32 5 -26 4 -38 -4 -38 -6 0 -10 3 -10 8 1 4 1 14 0 22 -1 12 -3
13 -10 1 -12 -19 -28 -7 -34 26 -6 32 25 98 86 185 22 31 41 70 43 85 1 15 9
46 18 68 17 46 22 120 6 95 -6 -9 -10 -10 -10 -3 0 6 4 15 10 18 14 9 12 54
-4 108 -8 26 -11 49 -8 51 8 5 33 -20 26 -26 -2 -3 1 -20 7 -38 l12 -32 12 28
c12 29 18 82 17 142 0 23 4 32 15 32 12 0 14 -7 9 -32 -4 -18 -12 -60 -17 -92
-5 -32 -15 -68 -20 -78 -13 -25 -28 -158 -17 -158 4 0 8 8 8 17 0 9 71 87 158
173 248 244 334 341 321 357 -7 7 -9 16 -5 20 3 3 6 1 6 -5 0 -7 6 -12 13 -12
15 0 193 177 186 185 -6 5 -353 11 -444 7 -27 -1 -117 -2 -200 -3 -104 0 -152
-4 -157 -12 -4 -7 17 -34 57 -70 67 -61 73 -75 53 -120 -16 -34 -21 -34 -51 3
-38 44 -43 36 -8 -11 29 -40 29 -43 15 -71 -8 -16 -12 -33 -9 -38 3 -5 -1 -7
-9 -4 -10 4 -17 -2 -22 -20 -8 -35 -30 -52 -38 -30 -4 9 -4 19 -1 22 3 3 5 -1
5 -9 0 -8 7 -4 16 9 9 13 13 30 10 38 -3 8 -2 13 2 10 4 -2 14 -1 22 4 13 8
13 13 2 31 -12 18 -12 23 0 31 10 8 10 9 -2 5 -10 -3 -14 -15 -13 -33 2 -20 0
-25 -6 -15 -8 12 -11 12 -24 0 -8 -8 -18 -25 -21 -37 -9 -26 -30 -18 -23 8 3
12 0 17 -8 14 -7 -3 -15 2 -19 11 -5 14 -8 14 -29 1 -21 -14 -23 -14 -24 4 -1
10 6 20 15 22 15 3 15 4 1 10 -28 11 -44 -7 -34 -38 10 -28 75 -73 75 -53 0 8
5 7 15 -1 9 -8 12 -17 7 -24 -19 -24 -20 -42 -2 -42 12 0 16 6 12 16 -4 12 -2
13 8 3 11 -10 11 -17 1 -40 -13 -26 -14 -27 -22 -8 -4 11 -8 16 -8 11 -1 -5
-7 -3 -14 3 -8 6 -18 7 -23 3 -5 -4 -6 -3 -1 2 4 5 0 18 -10 28 -17 20 -39 25
-27 7 4 -8 -1 -9 -17 -4 -20 7 -22 6 -11 -7 10 -12 9 -18 -6 -31 -16 -14 -23
-11 -92 40 -85 62 -184 111 -282 139 -45 12 -68 24 -71 36 -6 23 -37 35 -47
18 -13 -21 -21 6 -10 34 11 31 40 34 47 6 8 -31 40 -25 48 9 3 16 13 32 21 35
8 3 14 10 14 17 0 6 14 28 30 49 17 21 30 41 30 44 0 3 -137 6 -305 6 -204 0
-305 -3 -305 -10 0 -7 -6 -7 -19 0 -13 7 -283 10 -807 10 l-787 0 -66 -31
c-71 -34 -199 -109 -283 -166 -209 -140 -394 -356 -513 -601 -43 -89 -117
-308 -113 -336 2 -12 15 16 32 69 17 50 43 119 58 153 15 35 28 72 28 82 0 11
5 22 10 25 6 4 24 32 40 64 81 161 258 371 407 484 34 26 63 47 66 47 2 0 38
22 78 49 74 48 187 109 244 131 21 9 207 12 645 13 l615 2 75 -49 c260 -170
290 -194 231 -183 -18 4 -43 7 -55 7 -12 0 -35 13 -52 28 -56 54 -286 182
-325 182 -18 0 10 -18 115 -74 129 -69 215 -120 216 -128 0 -14 -76 -8 -157
12 -51 13 -127 21 -209 24 -71 2 -214 8 -319 12 -178 6 -193 6 -235 -13 -25
-12 -76 -33 -115 -48 -38 -15 -89 -36 -112 -46 -23 -11 -51 -19 -61 -19 -18 0
-51 -11 -127 -44 -16 -7 -57 -24 -89 -36 -75 -30 -60 -36 38 -16 41 9 84 16
96 16 21 0 29 20 8 20 -23 1 56 39 81 40 13 0 64 20 115 44 50 24 118 51 151
60 33 9 70 22 83 28 17 9 48 9 125 -1 56 -7 146 -14 201 -16 54 -2 111 -7 126
-10 16 -3 31 -1 35 4 4 8 12 8 25 1 10 -5 42 -9 71 -8 30 0 74 -5 99 -11 25
-7 108 -17 184 -22 77 -4 167 -15 200 -23 34 -9 81 -18 105 -22 51 -8 111 -56
131 -104 16 -37 47 -40 56 -5 3 14 12 25 19 25 21 0 28 49 10 76 -19 29 -42
21 -65 -20 -7 -14 -19 -26 -27 -26 -19 0 -17 7 23 61 30 41 40 48 58 43 34
-11 96 -13 96 -4 0 5 14 8 30 7 20 -1 28 -6 25 -14 -3 -7 -8 -20 -12 -30 -4
-11 -3 -14 5 -9 7 4 12 14 12 22 0 16 32 19 58 4 9 -5 46 -23 82 -39 83 -38
142 -72 157 -91 6 -8 16 -15 21 -15 5 0 33 -20 61 -44 40 -34 48 -47 40 -57
-13 -16 -5 -44 12 -44 6 0 9 7 5 15 -3 8 -1 15 4 15 6 0 10 -9 10 -20 0 -19
-24 -28 -34 -12 -2 4 -21 7 -42 6 -21 -1 -48 4 -60 12 -17 11 -23 12 -26 3 -3
-9 -12 -9 -35 3 -17 9 -36 12 -43 8 -21 -13 -1 -30 36 -30 33 0 34 -1 34 -42
0 -23 3 -39 6 -35 3 3 6 22 6 41 0 25 4 34 12 29 6 -4 22 -7 36 -8 21 0 26 -5
28 -32 2 -18 -4 -43 -13 -56 -15 -24 -15 -24 12 -20 16 3 23 1 17 -4 -6 -4
-14 -20 -18 -35 -3 -16 -11 -28 -16 -28 -6 0 -10 -8 -10 -17 0 -13 -3 -14 -12
-5 -7 7 -14 12 -18 12 -10 0 -11 -114 -1 -160 5 -25 12 -65 15 -90 l5 -45 -15
40 c-9 22 -19 60 -23 85 -4 27 -12 44 -19 43 -7 -2 -12 4 -12 13 0 9 6 14 13
11 8 -3 14 2 15 11 1 30 -9 72 -19 72 -14 0 -11 -28 4 -33 6 -2 8 -8 4 -13 -5
-5 -13 -1 -18 9 -13 22 -30 22 -22 0 3 -10 3 -15 -2 -11 -4 4 -17 -4 -28 -18
-16 -21 -18 -30 -9 -50 12 -25 7 -54 -9 -54 -14 0 -11 18 3 22 9 3 7 10 -6 23
-18 19 -18 19 -11 -4 5 -16 4 -21 -4 -17 -7 5 -7 -2 0 -24 6 -16 15 -30 20
-30 5 0 9 -5 9 -11 0 -8 -4 -8 -14 0 -11 9 -15 7 -19 -8 -4 -15 -1 -18 12 -13
14 5 14 4 2 -11 -8 -10 -11 -20 -8 -24 4 -3 1 -15 -5 -26 -10 -20 -11 -20 -25
7 -13 24 -12 30 7 62 18 28 20 37 9 50 -11 14 -13 14 -21 0 -5 -9 -6 -21 -3
-26 3 -6 0 -19 -8 -31 -8 -11 -17 -17 -19 -12 -3 4 -3 2 -1 -5 2 -8 -13 -40
-33 -72 -37 -61 -39 -85 -7 -112 14 -11 15 -10 9 12 -6 22 -5 23 5 7 8 -14 8
-22 0 -30 -9 -9 -18 -4 -37 18 -15 17 -23 23 -20 12 6 -19 -2 -47 -14 -47 -9
0 -6 57 4 67 12 12 6 25 -9 19 -12 -4 -14 3 -11 45 2 31 0 46 -5 38 -5 -8 -9
-12 -10 -9 -4 20 -10 70 -12 93 -1 15 -5 27 -8 27 -4 0 -12 21 -20 47 -7 26
-24 70 -37 97 -13 28 -28 60 -33 71 -5 11 -18 34 -29 50 -11 17 -23 37 -27 45
-4 8 -13 20 -21 26 -13 10 -13 14 4 37 18 25 52 48 39 27 -3 -6 -4 -10 -2 -10
5 0 77 105 77 112 0 2 -6 5 -12 5 -7 1 -29 4 -48 8 -32 7 -33 6 -16 -7 21 -16
19 -49 -4 -55 -13 -4 -13 -3 0 6 11 8 1 11 -43 11 -36 0 -56 4 -52 10 4 6 -5
10 -19 10 -14 0 -26 5 -26 10 0 7 -7 7 -22 -1 -18 -10 -20 -9 -15 5 9 23 -20
20 -33 -3 -14 -27 -14 -28 20 -28 17 0 36 -5 42 -11 17 -17 -12 -38 -50 -36
-34 2 -74 -23 -93 -58 -13 -24 1 -18 39 16 22 20 23 20 16 1 -8 -20 -7 -20 20
-2 27 18 27 18 16 -2 -16 -31 -6 -26 36 17 25 25 33 30 25 14 -18 -35 -7 -37
19 -5 21 25 22 26 17 5 -5 -23 3 -22 35 5 26 23 30 -2 6 -39 -20 -30 -28 -34
-73 -36 -30 -1 -55 -8 -65 -18 -14 -15 -13 -16 10 -9 42 12 63 11 68 -3 2 -7
-2 -12 -9 -11 -23 5 -90 -22 -83 -33 4 -6 9 -5 15 3 4 7 11 10 15 6 4 -4 13
-2 21 5 18 14 29 3 14 -15 -18 -22 -120 -52 -133 -39 -7 7 -17 8 -29 2 -19
-11 -49 -3 -49 12 0 5 -9 7 -19 3 -13 -4 -27 1 -42 16 -16 16 -23 18 -29 9 -5
-8 -15 -10 -26 -6 -16 6 -16 8 -4 16 20 13 8 12 -24 0 -30 -11 -32 -8 -10 14
26 27 0 18 -45 -15 -53 -38 -68 -28 -22 13 28 25 30 29 11 23 -18 -6 -22 -4
-17 7 4 11 -3 14 -29 13 -19 0 -34 3 -34 7 0 4 -7 8 -15 8 -12 0 -13 -5 -4
-24 7 -14 17 -22 24 -20 7 3 16 1 20 -5 3 -6 0 -11 -7 -11 -7 0 -23 -3 -35 -6
-21 -6 -23 -3 -23 28 0 44 -9 53 -27 28 -8 -11 -18 -18 -22 -15 -12 7 -71 -25
-78 -41 -3 -8 -11 -14 -18 -14 -7 0 -18 -6 -24 -14 -7 -8 -32 -20 -56 -27 -26
-8 -46 -20 -48 -31 -4 -14 -10 -16 -28 -10 -14 6 -37 3 -63 -6 -23 -8 -61 -15
-86 -16 -25 -1 -50 -4 -55 -8 -6 -4 -35 -9 -65 -12 -30 -2 -63 -8 -72 -11 -11
-4 -18 -3 -18 4 0 6 5 11 10 11 6 0 10 7 10 15 0 9 -9 15 -25 15 -14 0 -25 5
-25 10 0 16 -30 11 -57 -9 -13 -11 -31 -17 -39 -14 -8 3 -20 1 -27 -4 -6 -6
-28 -13 -47 -16 -29 -4 -40 0 -59 19 -27 28 -34 29 -55 8 -18 -18 -51 -20
-256 -15 -77 2 -146 -1 -161 -7 -25 -10 -121 -8 -139 3 -6 4 -10 15 -10 25 0
23 30 29 85 17 26 -5 47 -4 61 4 13 6 30 9 38 6 8 -3 18 -2 21 3 4 6 19 10 34
10 15 0 36 7 47 15 17 14 15 15 -31 9 -27 -3 -52 -8 -54 -10 -2 -2 -10 1 -17
7 -7 6 -19 7 -26 3 -15 -10 -58 -12 -63 -3 -7 10 -159 -1 -166 -13 -4 -7 -9
-7 -13 1 -5 7 -15 7 -33 0 -15 -5 -39 -11 -55 -13 -16 -2 -37 -11 -47 -20 -25
-22 -56 -22 -45 2 4 9 8 37 9 62 2 64 11 77 56 84 21 3 57 9 79 12 54 8 51 23
-2 17 -53 -6 -113 9 -113 27 0 14 27 24 98 35 21 3 35 10 33 14 -3 5 7 7 23 5
19 -2 35 3 46 16 18 20 17 20 -24 20 -27 0 -52 -7 -67 -19 -14 -11 -42 -22
-64 -26 -22 -4 -42 -11 -46 -16 -3 -5 -16 -9 -30 -9 -32 0 -41 -25 -43 -114
-1 -37 -3 -72 -6 -76 -2 -3 -1 -20 4 -36 6 -25 13 -30 52 -34 l44 -5 -34 -30
c-60 -52 -72 -68 -127 -164 -50 -86 -55 -101 -60 -170 -6 -82 8 -82 21 -1 8
58 25 110 34 110 4 0 17 18 30 40 12 22 26 40 32 40 5 0 9 6 9 14 0 15 37 32
47 22 4 -3 0 -6 -9 -6 -15 0 -26 -18 -48 -77 -12 -32 -6 -58 11 -48 5 4 9 14
9 24 0 10 9 26 20 36 19 17 19 16 14 -21 -6 -51 -33 -188 -45 -237 -9 -33 -7
-42 8 -60 17 -20 17 -20 0 -14 -16 6 -18 3 -12 -26 9 -39 12 -44 26 -30 16 16
24 93 10 93 -6 0 -11 4 -11 10 0 5 6 7 13 5 9 -4 12 16 12 82 0 71 5 97 23
134 12 26 22 51 21 55 -4 18 20 62 45 82 14 11 26 25 26 30 0 14 71 72 87 72
19 0 37 -41 34 -81 -1 -30 5 -43 39 -77 22 -23 44 -42 49 -42 6 0 18 -13 28
-30 9 -16 22 -30 28 -30 6 0 17 -15 23 -34 13 -34 37 -53 47 -36 3 5 1 11 -5
15 -5 3 -10 15 -10 25 0 10 -6 21 -12 23 -10 4 -10 6 0 6 6 1 12 10 12 20 0
21 15 37 23 24 2 -5 2 -3 1 4 -4 17 30 78 46 81 19 4 72 43 67 49 -3 2 -29 -6
-59 -18 -56 -24 -108 -64 -108 -85 0 -28 -24 -24 -75 15 -30 23 -57 51 -59 64
-12 59 -16 98 -11 106 3 6 19 6 38 1 17 -5 57 -11 87 -14 65 -6 132 -20 149
-30 6 -4 18 -2 26 4 11 9 19 10 28 1 8 -6 17 -8 20 -5 3 3 11 3 17 -1 8 -5 6
-13 -6 -26 -17 -19 -17 -20 2 -13 10 4 27 14 36 22 10 8 24 12 33 8 9 -3 20 2
26 12 11 17 14 17 122 9 12 -1 17 -7 14 -19 -3 -9 -2 -16 2 -15 32 11 -21 -76
-56 -92 -13 -6 -23 -18 -23 -26 0 -9 -4 -13 -10 -10 -6 3 -7 -1 -4 -9 3 -9 1
-16 -5 -16 -6 0 -11 -13 -11 -30 0 -16 -4 -30 -9 -30 -5 0 -7 -9 -4 -19 6 -23
-24 -71 -44 -71 -12 0 -13 3 -4 14 7 8 14 31 16 51 2 19 8 41 14 49 7 9 7 16
0 23 -8 8 -7 20 5 44 13 26 14 35 3 48 -11 14 -10 14 5 3 15 -12 21 -11 45 8
24 19 25 21 6 16 -18 -6 -21 -4 -16 14 3 12 11 19 17 17 7 -3 13 4 13 14 1 16
-4 18 -33 16 -35 -2 -45 -14 -19 -23 8 -4 15 -12 15 -19 0 -7 -7 -15 -15 -19
-10 -3 -15 1 -15 12 0 12 -8 7 -27 -17 -30 -38 -43 -117 -18 -107 7 2 16 -2
19 -10 8 -22 7 -26 -4 -19 -6 3 -7 -1 -4 -10 4 -8 0 -22 -7 -31 -10 -13 -10
-17 2 -26 12 -8 12 -9 -1 -5 -9 2 -14 14 -13 31 1 18 -3 26 -14 26 -10 0 -14
6 -10 20 3 11 0 23 -6 27 -7 3 -9 3 -5 -2 4 -4 -4 -14 -18 -22 -34 -17 -39
-17 -20 3 9 8 16 21 16 27 0 26 -35 -26 -36 -54 l-2 -30 22 20 c12 12 24 21
27 21 10 0 4 -46 -8 -58 -7 -7 -13 -21 -13 -29 0 -13 6 -11 26 8 25 23 26 23
15 2 -15 -29 -14 -34 4 -27 20 8 20 -20 0 -36 -8 -7 -22 -10 -30 -6 -10 3 -15
1 -14 -7 4 -22 -23 -66 -37 -60 -10 4 -11 9 -4 17 5 7 11 21 13 32 1 10 6 24
10 31 4 6 3 14 -3 18 -5 3 -10 3 -10 -1 0 -3 -6 -1 -13 5 -9 7 -13 32 -12 75
1 50 -2 63 -13 59 -9 -4 -10 -9 -3 -16 5 -5 6 -16 1 -26 -56 -106 -57 -123 -6
-170 14 -14 26 -30 26 -38 0 -7 14 -36 32 -64 30 -49 32 -58 32 -148 0 -92 -1
-99 -39 -176 -22 -44 -42 -82 -46 -85 -3 -3 -19 -43 -35 -90 -24 -73 -28 -103
-30 -210 -3 -159 -2 -152 -13 -146 -5 4 -7 -3 -4 -14 3 -12 13 -19 25 -17 12
1 23 -4 25 -10 3 -9 -7 -13 -34 -13 l-38 0 25 -20 c14 -11 37 -22 53 -25 15
-4 27 -11 27 -16 0 -15 17 -10 24 7 3 8 1 24 -5 36 -10 19 -11 19 -30 2 -10
-9 -22 -14 -26 -10 -5 4 0 12 10 17 19 11 15 42 -8 65 -17 18 -12 232 8 309
19 73 38 128 47 135 4 3 15 20 24 38 14 27 22 32 54 32 37 0 92 -19 92 -32 0
-3 18 -29 40 -57 23 -28 38 -56 35 -61 -3 -5 13 -29 37 -53 63 -63 90 -136 67
-179 -6 -11 -7 -23 -3 -27 11 -7 35 -67 41 -102 7 -38 -8 -42 -58 -15 -39 22
-45 22 -55 8 -10 -13 -9 -23 3 -46 15 -28 16 -29 27 -10 11 19 46 22 46 4 0
-5 7 -7 16 -3 14 5 15 3 5 -15 -8 -15 -8 -22 -1 -22 5 0 10 -12 11 -27 0 -16
3 -22 6 -15 2 6 13 12 23 12 18 0 30 19 30 46 0 8 -5 14 -11 14 -6 0 -8 -7 -5
-16 11 -29 -6 -36 -20 -9 -18 36 -10 46 26 33 23 -7 34 -7 45 2 12 10 16 9 21
-4 7 -19 -15 -78 -26 -71 -10 6 -72 -20 -65 -27 3 -3 8 -16 10 -28 2 -13 12
-32 22 -43 18 -19 17 -20 -4 -9 -12 7 -23 17 -25 24 -3 8 -9 4 -17 -10 -11
-20 -10 -26 5 -36 17 -13 14 -46 -4 -46 -18 0 -40 55 -31 78 8 21 7 23 -13 16
-21 -6 -21 -6 -5 11 17 16 17 18 0 30 -10 7 -15 16 -12 19 10 11 36 -4 47 -27
l11 -22 0 22 c1 13 -7 24 -19 28 -11 3 -20 13 -20 21 0 17 -20 19 -21 2 0 -7
-5 -2 -10 11 -6 15 -14 21 -24 17 -9 -3 -18 1 -21 9 -5 11 -10 12 -25 2 -10
-6 -19 -18 -19 -25 0 -8 5 -10 13 -6 8 5 8 2 -2 -9 -18 -23 -23 -22 -48 16
-26 37 -29 58 -10 53 6 -1 9 -1 5 1 -4 3 -10 26 -14 53 -5 36 -11 49 -23 49
-9 0 -23 1 -31 2 -30 6 -115 -14 -127 -30 -15 -21 -5 -61 21 -82 17 -14 19
-21 10 -50 -6 -19 -7 -50 -3 -69 4 -19 5 -38 2 -43 -8 -14 -32 26 -33 56 0 20
-5 27 -19 27 -17 0 -18 -3 -8 -32 7 -18 18 -39 25 -46 6 -7 12 -21 12 -31 0
-17 29 -51 43 -51 4 0 7 11 7 25 0 14 -4 25 -10 25 -5 0 -10 -5 -10 -12 0 -6
-3 -9 -6 -5 -8 7 5 47 15 47 4 0 14 -11 21 -25 7 -14 17 -25 21 -25 11 0 0 31
-18 52 -8 9 -12 22 -8 28 11 18 35 -9 35 -41 0 -15 4 -31 10 -34 17 -10 11
-27 -7 -23 -10 2 -26 -5 -36 -17 -17 -18 -20 -18 -30 -4 -7 9 -18 14 -24 12
-13 -5 -17 6 -13 45 1 12 -4 22 -10 22 -6 0 -10 -10 -8 -22 2 -16 -3 -22 -19
-23 -13 -1 -23 4 -23 12 0 7 5 13 11 13 12 0 1 93 -12 98 -5 2 -9 17 -9 33 0
20 -5 29 -16 29 -13 0 -15 -7 -10 -34 4 -19 3 -37 -2 -40 -5 -3 -7 -17 -4 -31
2 -14 0 -25 -6 -25 -16 0 -22 28 -15 75 4 31 2 45 -6 45 -6 0 -11 -8 -12 -17
0 -10 -9 0 -20 22 -22 48 -25 82 -3 41 20 -36 40 -21 23 17 -12 26 -20 31 -46
28 -6 -1 -14 3 -18 9 -13 21 -26 9 -24 -22 2 -18 2 -58 0 -88 -1 -47 -3 -52
-13 -35 -6 11 -15 22 -18 25 -13 9 -16 99 -3 104 14 6 6 41 -13 57 -22 18 -29
2 -9 -21 10 -11 13 -20 7 -20 -6 0 -14 5 -17 11 -4 6 -17 14 -29 19 -17 7 -17
9 -3 9 25 1 21 21 -4 21 -13 0 -23 -8 -26 -21 -4 -12 -11 -18 -20 -15 -8 3
-17 6 -19 6 -2 0 -4 9 -4 19 0 14 -5 18 -19 14 -22 -6 -51 30 -51 64 0 13 -4
23 -8 23 -5 0 -7 75 -5 166 3 113 0 164 -7 159 -5 -3 -11 -43 -12 -88 -1 -54
-3 -66 -5 -34 -2 26 -8 45 -14 42 -12 -8 -12 -132 1 -140 6 -3 10 -20 10 -38
0 -29 -1 -30 -15 -11 -8 10 -15 15 -15 9 -1 -9 -30 51 -30 61 0 2 7 4 15 4 12
0 15 13 15 55 0 51 -10 69 -25 44 -4 -6 -13 -8 -19 -6 -8 3 -19 -9 -26 -29 -9
-22 -16 -30 -21 -22 -5 8 -10 2 -14 -15 -4 -15 -11 -25 -15 -22 -11 7 -24 -96
-18 -148 3 -23 1 -51 -3 -62 -4 -11 -8 -14 -8 -6 -1 10 -4 11 -14 2 -11 -9
-16 4 -27 72 -28 181 -24 212 33 236 17 7 67 34 110 60 78 46 78 46 72 81 -3
19 -8 43 -11 53 -5 17 3 27 90 106 31 27 36 38 31 58 -5 20 -3 24 9 20 17 -7
22 8 7 17 -14 9 -1 45 14 40 16 -7 24 41 20 126 -2 36 -4 75 -4 88 -2 38 -21
24 -22 -15 -1 -37 -1 -38 -8 -8 -6 25 -9 18 -15 -40 -22 -207 -35 -246 -104
-315 -25 -24 -53 -63 -62 -85 -10 -22 -36 -57 -59 -77 l-41 -37 -6 26 -7 25
-29 -31 c-47 -50 -65 -40 -39 22 10 23 21 65 25 92 4 28 9 59 12 70 4 16 3 17
-5 5 -9 -12 -11 -9 -11 15 -1 40 -33 130 -59 165 -11 16 -21 32 -21 36 0 3 -8
17 -19 30 -34 43 -5 97 31 60 10 -10 19 -11 32 -4 16 9 15 11 -9 24 -29 15
-95 19 -95 6 0 -4 5 -13 12 -20 24 -24 -5 -11 -64 30 -34 22 -80 47 -102 53
-38 11 -63 38 -82 85 -29 76 -61 129 -78 130 -10 0 -24 7 -30 16 -10 14 -15
12 -39 -12 -15 -15 -30 -38 -33 -51 -5 -18 -11 -22 -25 -18 -11 4 -19 4 -19 2
0 -3 24 -31 54 -63 58 -64 58 -69 -9 -79 -72 -12 -160 -62 -232 -133 -37 -38
-74 -76 -81 -85 -8 -10 -18 -14 -25 -10 -8 5 -7 9 6 11 9 2 15 7 12 12 -6 9
-110 -13 -169 -36 -22 -8 -53 -26 -69 -40 -43 -36 -50 -31 -45 28 6 53 -10
107 -38 135 -8 8 -22 29 -31 46 -9 18 -18 27 -20 20 -5 -15 -33 -5 -33 12 0 8
-8 11 -19 8 -13 -3 -21 2 -25 15 -4 11 -16 22 -26 25 -11 3 -20 12 -20 21 0 9
-7 16 -15 16 -8 0 -15 7 -15 16 0 9 -9 18 -20 21 -11 3 -20 10 -20 15 0 17
-64 68 -85 68 -12 0 -26 5 -31 10 -8 8 -20 7 -39 0 -16 -6 -42 -8 -59 -6 -17
3 -25 3 -18 0 20 -9 14 -27 -8 -21 -11 3 -18 1 -14 -4 3 -5 -17 -9 -45 -9 -41
0 -52 -4 -62 -21 -9 -17 -17 -20 -45 -16 -34 6 -55 -6 -32 -17 14 -6 -14 -1
-51 9 -17 5 -21 4 -16 -5 5 -9 0 -11 -21 -8 -16 3 -23 3 -16 1 34 -12 4 -20
-65 -17 -60 3 -81 0 -95 -13 -12 -11 -28 -14 -53 -10 -31 5 -50 -6 -25 -15 5
-1 -54 -4 -133 -5 -79 -1 -155 -7 -170 -12 -14 -6 -29 -6 -32 -2 -3 5 -19 14
-37 20 -17 6 -29 8 -25 4 10 -9 -31 -36 -43 -28 -6 3 -10 1 -10 -5 0 -6 -4 -8
-10 -5 -15 9 -12 18 13 45 26 27 107 96 141 119 12 8 23 18 26 21 12 14 170
109 223 134 89 41 250 95 351 117 167 36 526 35 611 0 11 -5 49 -17 85 -26
190 -52 472 -214 592 -339 26 -28 51 -47 54 -43 8 8 -91 108 -151 154 -38 28
-173 115 -240 153 -45 25 -163 71 -225 87 -218 57 -290 66 -475 60 -136 -4
-179 -9 -290 -36 -71 -18 -134 -37 -140 -42 -5 -5 -18 -9 -30 -9 -33 0 -235
-93 -305 -140 -131 -89 -261 -202 -340 -295 -37 -43 -119 -162 -130 -188 -6
-12 -14 -29 -19 -37 -36 -64 -41 -81 -35 -119 4 -26 3 -41 -4 -41 -5 0 -8 10
-5 23 5 22 5 22 -11 2 -16 -19 -17 -16 -14 55 3 69 7 81 48 145 95 152 228
306 340 395 30 24 60 49 65 55 31 33 262 152 370 190 72 25 113 45 94 45 -9 0
-32 3 -50 6 -23 4 -30 3 -21 -4 18 -12 -2 -21 -38 -17 -14 1 -40 3 -57 4 -26
1 -33 5 -33 22 0 12 -4 17 -11 14 -6 -4 -9 -28 -7 -54 l3 -46 -50 -16 c-101
-33 -114 -34 -125 -3 -6 15 -10 53 -8 83 3 49 6 56 26 59 13 2 22 -2 22 -10 1
-7 11 0 24 16 19 23 28 27 47 20 13 -4 29 -7 34 -5 6 2 21 5 35 6 14 2 48 9
75 15 28 6 77 11 110 10 134 -3 267 -1 272 3 9 9 -106 20 -162 15 -30 -3 -55
-2 -55 2 0 14 26 30 50 30 23 1 24 2 8 14 -23 17 -23 43 0 49 16 4 16 5 0 6
-10 0 -18 6 -18 11 0 6 -1 13 -2 18 -2 4 44 9 102 13 l105 5 -107 2 c-109 2
-148 18 -60 25 l47 3 -51 2 c-33 1 -56 8 -65 18 -32 39 -111 35 -124 -7 -8
-23 -18 -24 -35 -4 -19 23 -60 18 -82 -10 -11 -14 -30 -25 -43 -25 -22 0 -24
5 -27 52 -4 66 -24 75 -34 13 l-6 -46 -52 3 c-48 3 -51 5 -54 32 -2 17 -1 48
2 71 6 40 7 41 41 37 21 -3 32 -8 28 -15 -4 -6 2 -8 15 -5 14 4 26 0 32 -10 9
-16 11 -16 20 0 10 16 13 16 34 3 13 -9 30 -13 38 -10 8 3 28 1 44 -5 37 -15
144 -18 144 -5 0 6 3 6 8 -1 10 -14 40 -25 46 -16 13 21 -16 33 -85 38 -87 5
-161 17 -244 37 -33 9 -80 20 -105 26 -25 6 -62 19 -83 28 -20 9 -40 13 -44
10 -3 -4 -13 1 -22 11 -27 29 -59 43 -64 29 -2 -7 -4 12 -6 41 -1 51 21 112
41 112 4 0 8 5 8 10 0 6 -65 10 -175 10 -138 0 -177 -3 -181 -13z m7821 -96
c3 -5 19 -12 35 -16 17 -4 30 -11 30 -16 0 -5 7 -9 15 -9 8 0 15 -4 15 -9 0
-18 -16 -20 -43 -6 -25 13 -26 13 -16 -12 7 -20 5 -36 -12 -69 -23 -49 -35
-60 -43 -42 -3 7 -4 4 -1 -7 5 -23 -38 -101 -54 -98 -5 2 -8 -4 -5 -12 9 -22
-29 -65 -47 -54 -8 5 -20 9 -28 9 -11 0 -11 -3 -1 -15 9 -11 9 -15 1 -15 -7 0
-9 -5 -6 -11 12 -18 -4 -57 -26 -64 -14 -5 -19 -13 -16 -25 4 -16 2 -17 -19
-8 -27 12 -30 23 -11 35 27 17 59 74 48 87 -7 8 15 54 80 164 71 120 88 157
83 177 -6 24 8 35 21 16z m296 -84 c4 -5 11 -7 17 -3 16 10 33 -20 26 -48 -3
-14 -10 -26 -14 -26 -5 0 -12 -10 -16 -22 -8 -27 -22 -38 -49 -38 -18 0 -18 2
5 20 21 17 23 21 10 30 -22 15 -31 12 -37 -10 -6 -23 -22 -25 -47 -7 -16 12
-17 16 -5 38 8 13 16 26 19 29 3 3 13 18 23 33 14 22 23 27 40 21 12 -4 25
-11 28 -17z m-7316 -249 c28 -12 34 -38 9 -38 -13 0 -11 -5 7 -21 13 -11 18
-18 12 -14 -8 3 -13 0 -13 -8 0 -11 -16 -17 -52 -22 -71 -8 -149 -25 -170 -36
-18 -9 -22 6 -22 83 1 13 -11 19 -44 24 -59 9 -35 24 38 23 30 0 49 -3 42 -6
-22 -9 -2 -23 21 -14 12 5 46 12 74 16 29 4 55 11 59 16 7 11 8 11 39 -3z
m-310 -85 c12 -57 13 -62 6 -61 -3 0 -19 -1 -36 -2 l-30 -2 30 -9 c22 -6 12
-7 -35 -5 -40 3 -55 1 -40 -4 22 -6 23 -8 7 -15 -9 -4 -30 -5 -47 -3 -16 2
-27 1 -25 -3 5 -7 -63 -19 -127 -22 -20 0 -35 -4 -32 -8 2 -4 -18 -9 -46 -11
-48 -3 -50 -2 -49 22 1 14 -2 33 -6 42 -5 13 0 19 22 25 38 10 375 81 390 82
7 1 15 -11 18 -26z m4324 -337 c9 -10 8 -16 -3 -25 -8 -7 -12 -20 -9 -29 4
-13 3 -14 -5 -4 -7 10 -15 4 -33 -25 -37 -60 -59 -105 -59 -123 0 -8 -6 -25
-14 -36 -8 -11 -16 -33 -18 -49 -3 -26 -7 -30 -30 -27 -16 1 -28 0 -28 -4 0
-3 20 -28 44 -55 49 -55 76 -105 76 -143 0 -15 17 -55 38 -89 31 -49 41 -79
51 -144 6 -45 18 -94 26 -110 29 -58 54 -210 57 -343 1 -53 -2 -101 -6 -108
-4 -7 -8 -27 -8 -45 0 -17 -3 -35 -5 -40 -6 -10 -45 19 -59 44 -11 21 -11 21
-22 -10 -9 -25 -8 -31 4 -31 19 0 18 -10 -3 -25 -15 -11 -16 -15 -3 -31 12
-13 12 -18 3 -21 -18 -6 -16 -23 2 -23 8 0 15 -6 15 -12 0 -8 7 -5 15 6 14 18
15 15 15 -40 1 -55 2 -58 16 -39 8 11 13 28 10 39 -3 10 0 30 5 43 9 25 9 26
-26 20 -26 -4 -35 -2 -35 9 0 8 5 14 10 14 6 0 10 8 10 19 0 26 42 17 75 -16
30 -31 32 -59 4 -68 -13 -5 -19 -14 -17 -28 4 -29 26 -33 36 -6 7 19 10 20 15
5 6 -16 -11 -66 -23 -66 -3 0 -12 6 -19 13 -10 10 -12 6 -11 -18 3 -44 1 -55
-10 -55 -5 0 -11 15 -11 33 -1 17 -3 24 -6 15 -7 -27 -23 -21 -34 12 -6 17
-15 30 -20 30 -5 0 -9 9 -9 19 0 11 -4 23 -10 26 -5 3 -14 24 -20 45 -6 22
-15 40 -21 40 -5 0 -7 -11 -3 -25 3 -14 2 -25 -4 -25 -5 0 -12 -9 -15 -20 -3
-11 -1 -20 4 -20 5 0 9 -13 9 -30 0 -16 5 -30 10 -30 6 0 10 -7 10 -15 0 -8
-9 -15 -20 -15 -11 0 -20 7 -20 15 0 8 -6 12 -14 9 -8 -3 -16 3 -19 15 -3 12
-10 21 -16 21 -13 0 -15 -32 -2 -46 14 -14 18 -42 6 -44 -5 -1 -13 9 -17 22
-6 23 -6 23 -7 1 -1 -27 -21 -41 -22 -16 0 10 -2 30 -4 46 -2 15 0 25 6 22 5
-4 9 1 9 9 0 8 -4 17 -10 21 -5 3 -7 12 -3 20 4 11 1 13 -11 9 -10 -4 -16 -1
-16 7 0 12 -2 12 -9 0 -11 -17 -2 -53 12 -44 6 3 7 1 3 -5 -11 -18 -34 -2 -58
39 -12 21 -25 39 -30 39 -10 0 -11 -33 0 -46 4 -5 -2 1 -13 13 -12 13 -26 23
-33 23 -15 0 -15 -6 -2 -30 7 -14 5 -19 -10 -23 -17 -4 -20 0 -20 23 0 30 -12
42 -45 47 -26 5 -37 24 -22 41 10 12 13 10 23 -13 15 -37 26 -17 14 26 -6 19
-10 35 -10 36 0 2 9 3 20 3 22 0 26 -10 9 -27 -9 -9 -8 -16 5 -28 9 -9 16 -21
16 -26 0 -5 5 -9 10 -9 6 0 5 8 -2 20 -7 10 -8 23 -4 27 5 4 10 4 13 -2 2 -5
8 -17 13 -25 8 -13 11 -13 19 -1 5 8 15 11 23 8 11 -4 14 1 10 19 -4 20 -1 23
14 18 35 -13 45 -25 33 -41 -9 -11 -8 -17 7 -28 30 -23 58 -17 47 10 -2 8 -12
11 -20 8 -13 -5 -15 -2 -10 16 3 14 -1 30 -11 42 -13 15 -20 56 -29 167 -16
203 -47 413 -78 527 -9 33 -23 83 -30 110 -18 65 -30 127 -27 142 4 21 -18 93
-28 93 -6 0 -10 9 -10 19 0 11 -6 21 -12 24 -10 3 -10 7 0 20 12 14 12 19 -2
32 -9 9 -20 13 -26 10 -5 -3 -10 1 -10 9 0 9 5 16 10 16 6 0 10 4 10 10 0 5
-7 7 -15 4 -18 -7 -19 6 -2 29 11 15 15 15 55 -3 23 -10 42 -24 42 -30 0 -5 7
-10 15 -10 8 0 34 -18 56 -40 23 -22 50 -40 60 -40 29 0 24 6 -36 44 -30 19
-61 49 -70 67 -22 42 -63 79 -89 79 -12 0 -30 7 -40 15 -32 24 -45 18 -102
-42 -45 -48 -53 -61 -45 -78 5 -11 12 -27 15 -35 4 -8 13 -26 21 -40 9 -15 15
-53 15 -97 0 -50 6 -86 21 -119 11 -27 18 -56 16 -66 -3 -10 -1 -18 4 -18 20
0 77 -141 78 -195 1 -19 -7 -36 -23 -50 -13 -11 -31 -38 -40 -59 -15 -36 -17
-38 -53 -32 -21 4 -66 7 -101 8 -58 1 -66 4 -87 31 -13 17 -21 35 -19 41 11
33 12 210 1 233 -9 21 -9 27 0 30 8 3 10 15 6 34 -3 16 -2 29 3 29 5 0 9 43 9
96 0 72 4 98 14 104 10 6 12 19 8 54 -4 26 -3 45 1 42 4 -3 14 16 21 41 14 45
84 189 102 208 6 5 9 3 9 -8 0 -19 20 -23 37 -6 7 7 40 10 87 7 47 -2 76 0 76
7 0 5 4 4 9 -4 6 -9 22 -12 57 -8 27 3 93 8 146 10 54 2 101 7 105 10 11 12
60 7 72 -7z m326 -165 c3 -9 14 -17 26 -18 14 -1 19 3 15 12 -3 9 0 12 10 8 9
-3 14 1 14 13 0 27 35 -42 54 -106 9 -30 16 -88 16 -131 0 -47 7 -99 19 -135
44 -138 45 -162 11 -261 -25 -75 -30 -107 -30 -182 0 -80 -2 -92 -20 -101 -21
-11 -44 -4 -89 31 -13 11 -37 19 -52 19 -23 0 -29 5 -29 21 0 11 4 18 9 15 11
-7 20 50 22 129 1 45 3 54 9 35 7 -22 8 -22 11 -5 1 11 1 27 1 35 -1 8 -5 86
-8 173 -4 111 -3 157 5 157 6 0 13 -11 17 -25 6 -26 18 -32 29 -16 3 5 -10 25
-28 45 -26 27 -36 50 -45 99 -7 35 -12 80 -12 100 0 22 -6 39 -15 45 -13 7
-14 13 -4 38 10 26 12 27 18 10 4 -11 10 -15 14 -10 3 6 2 16 -4 24 -5 8 -9
19 -9 24 0 14 39 -24 45 -43z m-2525 -269 c14 -15 25 -30 25 -33 0 -4 3 -11 8
-15 4 -4 7 7 7 24 0 36 -1 36 34 22 24 -9 26 -15 26 -64 0 -45 -3 -54 -15 -50
-13 5 -13 3 0 -22 8 -16 15 -34 15 -40 0 -6 7 -17 15 -24 19 -16 19 -3 0 34
-8 15 -13 32 -10 36 3 5 8 28 11 52 4 24 8 45 10 47 6 6 73 -43 68 -50 -2 -4
2 -9 9 -12 15 -6 51 -76 65 -127 23 -79 23 -145 1 -201 -39 -100 -54 -122
-131 -203 -53 -56 -73 -83 -65 -88 7 -5 0 -6 -15 -2 -21 4 -27 1 -33 -16 -6
-20 -8 -20 -24 -5 -15 13 -20 13 -30 2 -6 -8 -37 -19 -68 -26 -70 -14 -223
-15 -223 -1 0 10 18 14 50 12 8 0 23 4 33 9 11 6 23 7 30 2 28 -21 86 4 70 31
-3 5 -1 6 6 2 17 -11 42 21 66 83 11 30 26 51 35 51 12 0 13 2 1 9 -9 6 -12
19 -7 42 7 42 -15 163 -37 204 l-17 30 6 -30 c4 -16 10 -39 15 -51 4 -11 3
-27 -2 -35 -6 -10 -9 -7 -9 14 0 37 -17 34 -29 -5 -9 -32 -9 -32 -10 -6 -1 15
4 30 10 34 13 8 6 52 -16 98 -16 32 -81 82 -69 53 3 -8 1 -18 -5 -22 -6 -3
-11 -3 -11 2 0 14 -90 65 -105 60 -7 -3 -15 -1 -17 4 -2 6 -23 13 -47 16 -52
7 -50 -11 1 -23 62 -13 140 -75 182 -144 30 -49 49 -130 40 -176 -15 -83 -77
-177 -146 -220 -21 -13 -37 -28 -35 -32 1 -4 -2 -7 -8 -7 -5 0 -9 3 -8 6 1 3
-19 5 -45 5 -57 -1 -159 46 -222 101 -36 33 -45 49 -60 108 -9 39 -20 89 -24
113 -3 23 -18 72 -32 108 -26 63 -26 65 -8 80 44 35 225 96 240 81 3 -3 -1
-18 -9 -34 -8 -15 -17 -45 -20 -66 -5 -32 -4 -37 7 -27 8 6 20 25 27 43 7 18
19 38 26 45 7 7 13 23 13 34 0 14 5 18 15 14 17 -6 20 5 5 20 -8 8 0 20 26 39
31 24 36 25 30 9 -6 -15 -5 -16 5 -7 10 10 9 15 -1 28 -14 17 -3 20 20 5 8 -5
17 -6 20 -2 6 8 78 44 125 63 90 36 176 32 215 -9z m3786 -82 c17 0 19 16 2
23 -8 3 -6 6 5 6 11 1 17 -6 17 -19 0 -11 7 -20 15 -20 20 0 19 -36 -1 -44 -8
-3 -12 -10 -9 -16 8 -13 45 -13 45 0 0 6 7 10 16 10 10 0 14 6 10 15 -3 8 0
15 7 15 14 0 17 -43 5 -56 -5 -4 -8 -2 -8 4 0 7 -4 12 -10 12 -14 0 -12 -27 3
-33 6 -2 20 0 30 5 11 5 17 5 17 -2 0 -21 45 -3 50 21 6 21 7 19 14 -14 6 -34
4 -41 -25 -68 -17 -16 -34 -27 -37 -24 -3 3 5 13 16 24 36 31 27 40 -38 38
-59 -1 -60 -2 -39 -18 13 -9 30 -15 38 -12 13 4 13 3 2 -5 -9 -6 -10 -12 -2
-16 6 -4 3 -14 -10 -27 -11 -11 -23 -18 -26 -15 -3 2 -16 1 -29 -5 -18 -6 -31
-5 -49 7 -14 9 -32 13 -41 10 -23 -9 -5 -29 22 -23 20 3 22 2 13 -15 -9 -17
-12 -17 -32 -3 -12 8 -32 15 -45 15 -13 0 -20 4 -17 10 3 6 -1 10 -10 10 -13
0 -16 6 -11 25 7 29 -8 33 -34 10 -16 -15 -17 -14 -12 12 4 23 2 26 -9 16 -25
-25 -38 -13 -14 13 13 14 29 23 34 19 6 -3 11 2 11 13 0 21 46 69 57 58 4 -4
2 -10 -4 -14 -7 -5 -2 -14 15 -26 l25 -19 -8 29 c-11 42 -9 60 12 81 13 13 19
15 21 6 2 -7 10 -13 18 -13z m-4900 -83 c4 -10 17 -12 49 -7 27 4 45 3 45 -3
0 -8 38 -47 46 -47 2 0 1 6 -2 13 -3 10 5 12 32 9 22 -3 31 -7 24 -12 -7 -4
-9 -13 -6 -19 10 -15 46 4 46 24 0 8 5 15 10 15 6 0 10 -7 10 -15 0 -8 -4 -15
-10 -15 -5 0 -10 -9 -10 -21 0 -13 -4 -18 -12 -13 -10 6 -10 4 -2 -7 16 -19
11 -54 -9 -77 -14 -16 -15 -23 -4 -45 6 -15 17 -27 22 -27 6 0 16 -9 23 -20 7
-11 18 -20 25 -20 9 0 8 3 -2 9 -9 6 -10 11 -2 15 6 4 11 2 11 -4 0 -7 7 -10
15 -6 8 3 15 1 15 -4 0 -6 -7 -10 -15 -10 -18 0 -19 -12 -3 -28 17 -17 -2 -33
-30 -26 -12 4 -22 12 -22 19 0 7 -7 15 -15 19 -8 3 -15 1 -15 -4 0 -6 -4 -10
-10 -10 -5 0 -7 7 -4 15 7 17 3 18 -20 9 -9 -3 -16 -18 -17 -33 -1 -22 -2 -23
-7 -6 -4 11 -15 31 -24 44 -13 19 -20 22 -31 13 -19 -17 -56 -3 -63 23 -7 30
31 72 50 56 17 -14 76 -3 76 14 0 7 11 16 25 19 45 11 24 83 -21 74 -29 -5
-40 -33 -24 -62 18 -35 7 -43 -14 -11 -9 14 -25 25 -36 25 -11 0 -20 7 -20 15
0 8 5 15 11 15 5 0 7 5 3 12 -6 9 -9 9 -12 0 -2 -8 -13 -7 -40 4 -20 9 -48 16
-62 16 l-25 -1 23 10 c13 5 28 7 33 3 5 -3 9 2 9 12 0 11 -6 15 -19 11 -13 -3
-18 -1 -15 8 3 8 -4 16 -17 20 -17 6 -19 9 -8 16 20 13 39 11 45 -4z m2651
-372 c58 3 72 0 98 -19 29 -21 65 -24 65 -5 0 17 26 9 60 -20 56 -47 132 -225
147 -344 l5 -39 -48 7 c-66 10 -141 34 -155 51 -20 25 -42 17 -38 -13 2 -11
-29 -23 -45 -17 -19 7 -22 44 -3 44 7 0 18 -5 25 -12 8 -8 12 -8 12 -1 0 6 -6
16 -14 22 -23 20 -59 -4 -53 -35 7 -40 -10 -37 -24 3 -14 41 -13 86 2 91 5 2
9 8 9 13 0 6 -4 8 -8 5 -9 -5 -7 28 9 119 7 41 17 65 32 77 12 9 19 20 15 24
-4 4 -23 -5 -43 -20 -43 -33 -46 -20 -5 19 17 16 30 34 30 39 0 6 -5 4 -10 -4
-9 -13 -11 -13 -20 0 -8 13 -11 11 -16 -7 -4 -13 -10 -20 -15 -17 -5 3 -9 -3
-9 -13 -1 -16 -3 -15 -20 6 l-20 23 -9 -23 c-9 -21 -10 -22 -11 -4 -1 18 -2
18 -13 4 -21 -27 -44 -29 -65 -5 -20 23 -20 23 1 70 l20 47 23 -35 c23 -34 24
-34 91 -31z m869 27 c16 -10 44 -68 44 -91 0 -28 -32 -81 -50 -81 -8 0 -25 -3
-37 -6 -19 -5 -23 -1 -29 33 -4 21 -15 54 -25 74 -17 35 -17 36 4 57 21 22 71
29 93 14z m-3146 -47 c0 4 7 2 15 -5 9 -7 14 -18 12 -23 -4 -12 36 -57 50 -57
6 0 18 -10 26 -23 18 -27 140 -89 211 -106 99 -24 363 -18 389 8 15 15 37 14
37 -2 0 -13 -84 -47 -115 -47 -12 0 -15 -5 -11 -16 5 -14 1 -15 -30 -10 -19 4
-43 10 -51 13 -11 4 -14 2 -9 -5 5 -8 -1 -12 -16 -12 -16 0 -19 3 -10 9 22 13
-14 23 -57 15 -30 -6 -32 -8 -16 -15 14 -5 9 -7 -17 -6 -34 2 -35 3 -21 20 15
16 13 17 -33 17 -35 0 -45 -3 -34 -10 10 -7 -2 -9 -42 -7 -32 1 -53 4 -47 6
12 4 -37 31 -57 31 -8 0 -14 5 -14 11 0 6 6 9 13 6 6 -2 23 -8 37 -12 25 -7
25 -7 3 9 -41 31 -74 38 -93 21 -23 -21 -53 -10 -40 15 6 10 10 20 10 22 0 8
-45 3 -60 -6 -8 -5 -12 -6 -8 -2 8 10 -14 36 -24 29 -5 -2 -8 7 -8 21 0 14 0
28 0 31 0 3 3 4 8 3 4 -2 6 -9 6 -16 -1 -7 3 -11 10 -9 6 3 21 -5 34 -16 37
-35 24 -9 -17 32 -22 22 -42 37 -45 34 -3 -4 -15 4 -26 17 -23 26 -27 15 -6
-16 13 -18 12 -20 -4 -20 -10 0 -16 4 -13 9 3 5 0 13 -7 17 -10 6 -6 15 14 35
22 22 30 24 41 15 8 -7 15 -9 15 -5z m1087 -107 c2 -51 5 -106 7 -121 3 -25 1
-28 -18 -23 -11 3 -33 6 -49 6 -20 0 -30 7 -39 28 -7 15 -18 34 -25 43 -11 13
-9 19 11 38 l25 23 5 -33 c13 -79 15 -80 12 -12 -3 68 -1 75 27 113 17 22 33
38 35 35 3 -2 6 -46 9 -97z m2386 1 c78 -39 124 -99 77 -99 -12 0 -31 -7 -44
-15 -18 -12 -30 -13 -50 -5 -15 5 -35 10 -44 10 -14 -1 -14 -3 3 -13 30 -18
75 -59 75 -69 0 -5 -4 -7 -9 -4 -5 4 -7 -3 -4 -15 4 -13 8 -17 13 -9 5 7 9 3
13 -12 11 -40 8 -85 -8 -98 -16 -14 -35 -6 -35 16 0 17 -12 18 -27 3 -9 -9
-16 3 -28 45 -10 33 -24 60 -36 66 -23 13 -25 33 -4 50 20 16 19 30 -1 30 -12
0 -15 6 -10 23 3 12 6 29 6 37 0 13 1 13 11 0 7 -11 8 -4 4 27 -5 35 -4 42 12
46 34 9 44 7 86 -14z m-343 -59 c-13 -9 -13 -11 0 -20 8 -5 26 -6 39 -3 15 4
22 2 18 -4 -4 -6 9 -13 31 -17 60 -9 162 -117 162 -171 0 -15 -54 -29 -107
-28 -28 1 -33 -2 -33 -23 0 -13 -5 -24 -11 -24 -7 0 -10 13 -7 34 2 23 0 32
-8 29 -7 -2 -15 0 -19 6 -3 6 2 11 12 12 12 0 13 2 5 6 -7 3 -24 -5 -38 -18
l-24 -22 0 26 c0 14 -5 29 -11 32 -5 4 -14 18 -20 32 -5 13 -13 22 -18 19 -5
-4 -7 11 -4 34 5 39 0 46 -30 41 -5 -1 -6 3 -2 9 3 5 -1 13 -11 17 -13 5 -10
10 17 24 38 19 86 26 59 9z m3139 -136 c5 -54 6 -105 3 -116 -2 -10 1 -25 8
-33 7 -9 9 -26 5 -45 -5 -24 -11 -31 -25 -27 -13 3 -17 0 -13 -9 3 -8 9 -14
14 -14 10 0 12 -73 2 -83 -3 -4 -15 0 -25 10 -17 15 -18 15 -18 -1 0 -10 9
-20 19 -23 11 -3 22 -11 25 -19 4 -11 1 -12 -13 -5 -10 6 -21 7 -25 4 -3 -3
-6 -2 -6 4 0 8 -8 8 -25 0 -27 -13 -33 -32 -12 -40 8 -4 7 -6 -3 -6 -8 -1 -21
13 -29 29 l-13 31 -28 -28 c-15 -16 -30 -37 -33 -48 -4 -16 -5 -16 -6 5 0 14
8 39 19 55 22 33 26 55 10 55 -5 0 -10 -6 -10 -13 0 -8 -10 -23 -22 -34 -23
-20 -58 -37 -58 -27 0 13 65 84 82 90 29 9 40 49 27 97 l-12 42 -11 -42 c-6
-23 -21 -53 -33 -67 -13 -15 -23 -30 -23 -35 0 -14 -62 -71 -77 -71 -9 0 -11
-5 -7 -12 6 -10 4 -10 -8 0 -15 12 -15 16 0 45 18 35 25 90 11 81 -12 -7 -11
28 1 60 8 23 7 26 -10 26 -11 0 -20 5 -20 10 0 6 8 10 19 10 19 0 43 21 40 36
-4 23 2 44 12 44 6 0 9 -9 6 -20 -3 -11 -1 -20 4 -20 5 0 9 7 9 15 0 8 8 15
18 16 14 0 14 2 -3 9 -19 8 -18 11 3 14 21 3 42 37 44 73 2 29 7 39 20 39 9 0
15 -2 13 -4 -2 -2 1 -17 7 -33 7 -21 7 -33 -2 -44 -8 -10 -9 -24 -1 -51 6 -23
7 -42 1 -49 -5 -6 -2 -26 9 -50 l19 -40 10 25 c8 18 11 20 11 8 1 -30 21 -20
21 11 0 16 6 34 14 40 8 7 18 27 22 44 3 18 11 37 16 44 10 13 6 111 -7 153
l-7 25 16 -22 c11 -15 20 -56 25 -119z m-2601 90 c15 -4 22 -14 22 -30 0 -12
5 -26 10 -29 6 -3 10 -15 10 -26 0 -10 5 -19 10 -19 6 0 10 5 10 10 0 6 5 10
10 10 6 0 10 -31 10 -74 0 -71 -2 -76 -49 -148 -48 -74 -64 -88 -102 -88 -10
0 -19 -3 -19 -7 0 -5 36 -8 79 -8 44 0 83 -3 87 -8 4 -4 1 -18 -6 -32 -7 -14
-10 -28 -7 -32 4 -4 13 8 19 25 14 37 43 46 33 10 -4 -13 -11 -27 -16 -32 -5
-6 -9 -21 -8 -35 0 -25 1 -24 12 6 18 48 30 53 21 8 -7 -37 -6 -39 10 -26 16
13 17 11 12 -40 -4 -39 -3 -46 3 -24 8 28 9 26 10 -17 0 -26 6 -50 11 -53 13
-8 13 -255 1 -255 -5 0 -12 8 -15 18 -3 9 -2 -8 1 -38 9 -95 9 -97 -34 -105
-50 -10 -220 -15 -255 -8 -21 4 -28 11 -28 29 0 12 -4 25 -9 28 -4 3 -11 33
-14 67 -3 34 -11 65 -17 69 -7 4 -8 10 -3 13 12 8 7 201 -6 205 -18 6 -13 29
8 35 11 3 23 22 32 52 12 41 15 44 21 23 4 -13 5 -4 2 20 -4 28 -2 42 6 42 6
0 10 9 8 20 -2 12 -7 20 -13 20 -5 -1 -9 -8 -7 -15 1 -8 -4 -28 -13 -44 -8
-17 -15 -39 -15 -50 0 -40 -260 -225 -435 -310 -217 -106 -511 -168 -742 -156
-65 3 -136 10 -158 15 -22 5 -56 10 -74 10 -25 0 -32 3 -24 11 10 10 49 13
313 24 125 5 182 12 300 37 25 5 68 14 95 19 66 13 185 54 264 90 48 23 62 33
57 46 -5 13 -4 14 9 3 14 -11 19 -7 16 12 0 4 5 5 13 2 29 -11 221 121 329
227 64 64 60 80 -5 20 -29 -27 -65 -59 -80 -71 -30 -23 -24 -25 -92 36 -19 17
-26 19 -26 9 0 -8 5 -15 11 -15 5 0 7 -5 4 -10 -10 -16 -25 -1 -25 26 0 28 16
31 41 8 31 -28 30 3 -1 33 -16 15 -30 32 -30 36 0 20 43 68 57 63 7 -3 16 1
19 9 4 8 10 12 15 9 5 -3 9 -1 9 5 0 5 -4 13 -10 16 -5 3 -10 1 -10 -4 0 -18
-52 -12 -65 6 -12 16 -6 36 23 73 2 3 9 -2 15 -11 7 -9 29 -18 50 -22 30 -5
41 -2 57 15 11 12 20 16 20 10 0 -7 5 -12 10 -12 6 0 10 7 10 17 0 14 2 14 20
-2 18 -16 22 -16 38 -3 32 28 80 42 97 28 12 -10 19 -7 39 15 28 30 25 52 -11
66 -32 12 -76 12 -68 -1 3 -5 1 -10 -5 -10 -21 0 1 -20 23 -21 20 -1 20 -2 -3
-8 -14 -4 -30 -6 -37 -4 -17 6 -25 35 -13 47 17 17 11 44 -17 70 -26 24 -26
27 -11 42 9 9 40 22 70 29 64 16 67 16 96 9z m-5267 -1326 c1 -65 4 -82 9 -58
10 54 18 21 30 -135 6 -77 13 -158 15 -180 2 -22 7 -78 10 -125 8 -103 42
-449 54 -540 9 -66 3 -87 -21 -77 -15 5 -25 79 -53 377 -14 147 -31 319 -40
405 -1 17 -3 66 -4 110 -3 184 -31 -32 -32 -250 -1 -49 2 -115 6 -145 3 -30 3
-50 -2 -43 -5 6 -17 11 -28 10 -15 -2 -20 4 -20 23 0 20 5 25 23 24 28 -1 23
20 -6 24 -18 3 -23 -3 -28 -27 -7 -33 -19 -47 -28 -32 -3 4 5 30 19 56 13 27
22 52 20 56 -5 7 18 342 35 509 5 52 10 98 10 103 0 4 7 7 15 7 12 0 15 -18
16 -92z m8031 -43 c7 -8 25 -28 41 -45 15 -16 27 -37 27 -45 0 -18 20 -20 20
-2 1 14 50 -39 50 -55 0 -5 -9 0 -20 13 -16 20 -19 21 -20 7 0 -32 -20 -19
-42 27 -15 30 -31 48 -47 52 -26 7 -52 -5 -59 -28 -4 -10 1 -9 16 4 16 15 24
16 41 8 42 -23 38 -113 -5 -119 -29 -4 -50 26 -58 80 -6 40 -4 48 12 57 26 14
36 42 20 53 -10 6 -10 8 -1 8 7 0 18 -7 25 -15z m-7293 -283 c4 -6 24 -13 46
-16 22 -2 40 -5 40 -6 0 -1 34 -2 75 -3 100 -3 130 -21 130 -79 0 -41 -21 -78
-45 -78 -21 0 -71 29 -99 57 -14 14 -29 23 -32 20 -4 -3 -19 0 -34 8 -22 11
-33 12 -61 2 -49 -18 -78 -36 -59 -38 8 0 2 -5 -13 -9 -16 -5 -38 -5 -50 0
-21 8 -21 9 3 10 43 1 0 20 -45 19 -51 0 -79 4 -85 13 -9 12 -114 25 -181 22
l-64 -3 55 14 c30 7 87 19 125 25 39 7 84 21 101 31 23 14 33 16 42 7 9 -9 12
-8 12 6 0 17 7 18 66 13 37 -3 69 -10 73 -15z m6641 -89 c0 -20 -7 -45 -17
-55 -16 -17 -17 -17 -36 -1 -19 17 -20 17 -14 1 9 -25 -22 -12 -51 21 -16 17
-26 22 -29 14 -2 -7 -20 -15 -39 -19 -19 -3 -34 -10 -34 -15 0 -5 -6 -9 -12
-9 -7 0 -35 -9 -63 -20 l-50 -19 172 -1 c160 0 172 1 167 18 -5 13 -4 14 4 3
5 -7 15 -10 21 -7 6 4 11 1 11 -6 1 -7 9 3 20 22 29 55 91 78 147 55 28 -12
53 -46 53 -73 0 -4 -15 -14 -32 -21 l-33 -14 30 -6 c64 -13 15 -71 -65 -79
-43 -4 -52 -1 -74 23 -39 42 -34 53 27 58 50 3 -33 6 -370 10 -162 2 -198 8
-125 22 20 4 42 10 47 14 6 4 48 22 95 40 47 18 94 37 105 43 19 11 106 35
133 37 7 1 12 -13 12 -36z m-6709 -170 c0 -54 2 -123 4 -153 2 -30 7 -122 11
-205 3 -82 10 -142 13 -132 7 19 18 8 284 -270 68 -71 68 -71 53 -100 -18 -36
-46 -62 -46 -43 0 7 -7 10 -16 6 -8 -3 -12 -2 -9 4 3 5 1 15 -4 22 -76 92
-104 123 -113 120 -5 -1 -7 2 -4 7 4 5 0 15 -7 23 -7 7 -20 26 -30 41 -10 15
-23 25 -29 21 -7 -4 -8 -3 -4 5 4 7 -5 18 -23 29 -25 13 -31 24 -31 50 0 17
-5 32 -11 32 -13 0 -4 -93 9 -98 4 -1 4 -49 1 -105 -5 -85 -11 -110 -30 -140
-26 -40 -54 -47 -74 -20 -16 21 -9 44 11 36 12 -4 14 3 9 38 -3 24 -2 36 2 27
5 -10 7 83 5 205 -3 252 -4 545 -1 597 2 46 -3 80 -13 80 -4 0 -8 5 -8 10 0 6
11 10 25 10 25 0 25 0 26 -97z m-199 -37 c10 -7 25 -29 33 -50 14 -34 14 -39
-6 -79 -44 -90 -159 -157 -268 -157 l-51 0 0 35 c0 48 22 98 71 162 23 29 38
57 34 64 -5 7 -1 9 12 5 11 -3 37 3 59 14 45 22 92 25 116 6z m479 -59 c101
-96 147 -156 128 -168 -8 -5 -9 -9 -3 -9 23 0 23 -30 1 -56 l-23 -26 -67 47
c-37 25 -69 50 -72 56 -3 5 5 20 19 34 15 14 26 27 26 29 0 2 -17 16 -37 32
-25 19 -33 22 -23 9 8 -11 19 -23 23 -26 5 -3 0 -20 -10 -37 l-19 -31 -40 36
c-21 19 -49 42 -61 50 -13 9 -23 21 -23 28 0 15 80 105 94 105 6 0 45 -33 87
-73z m6216 -68 c18 -6 33 -15 33 -20 0 -5 6 -9 13 -9 7 0 13 -9 14 -20 3 -39
39 -75 89 -88 36 -10 45 -15 34 -22 -12 -8 -9 -10 10 -11 14 0 45 -1 70 -2
l45 -2 0 -45 c0 -35 -3 -44 -15 -41 -65 16 -79 18 -74 10 3 -5 -7 -9 -21 -9
-21 0 -25 4 -21 18 4 12 -2 26 -15 38 -21 19 -21 19 -8 -9 15 -32 11 -37 -33
-43 -82 -10 -83 -10 -84 11 -3 49 -5 55 -21 54 -11 0 -13 -3 -5 -6 17 -7 15
-38 -3 -53 -13 -10 -19 -9 -37 6 -18 16 -20 16 -15 2 8 -22 -2 -29 -25 -17
-15 8 -17 14 -9 22 15 15 -15 47 -44 47 -25 0 -35 -17 -35 -56 0 -14 -4 -22
-10 -19 -15 9 -12 81 4 95 8 6 32 11 53 10 58 -3 140 2 122 7 -9 2 -24 21 -34
42 -21 48 -41 58 -134 65 -41 4 -76 8 -77 9 -1 1 -5 14 -9 30 l-7 27 108 -5
c59 -3 123 -10 141 -16z m-7231 -281 c-3 -84 -5 -165 -6 -180 0 -23 -5 -28
-25 -28 -24 0 -24 2 -20 63 3 34 7 109 9 166 5 97 15 131 38 131 7 0 8 -56 4
-152z m634 -116 c0 -16 -13 -48 -30 -71 -17 -23 -28 -47 -24 -53 4 -6 3 -8 -3
-5 -14 9 -34 -16 -30 -34 2 -8 2 -11 0 -6 -8 14 -25 7 -19 -8 3 -8 2 -14 -2
-12 -11 3 -102 -92 -102 -107 0 -6 -9 -18 -20 -26 -24 -17 -27 -35 -4 -26 14
5 15 4 4 -9 -7 -8 -19 -15 -28 -15 -12 0 -14 9 -9 45 12 86 86 201 191 295 21
19 44 40 50 47 18 20 26 15 26 -15z m7195 -96 c14 -9 33 -33 43 -52 15 -32 19
-35 49 -29 30 5 33 4 33 -17 0 -17 -6 -24 -19 -24 -11 0 -17 4 -15 8 3 4 -4 8
-16 8 -14 0 -25 -11 -35 -34 -24 -56 -61 -79 -122 -74 -43 4 -59 11 -93 42
-23 21 -47 35 -53 33 -9 -3 -11 8 -9 37 2 30 1 37 -7 26 -12 -17 -35 -116 -33
-142 1 -31 -15 -20 -20 12 -3 21 0 34 11 40 13 7 14 11 4 21 -9 9 -13 10 -13
1 0 -8 -28 -10 -97 -7 -54 2 -157 4 -229 5 l-131 0 5 28 c3 15 10 31 16 35 7
6 6 7 -4 4 -8 -2 -16 -12 -18 -23 -2 -10 -10 -33 -18 -51 -8 -17 -14 -49 -14
-72 0 -23 -5 -41 -11 -41 -18 0 -4 109 25 185 14 39 26 60 26 48 l0 -23 198 0
c196 0 199 0 210 23 l11 22 0 -22 c1 -18 7 -23 26 -23 20 0 25 -5 26 -27 2
-24 2 -25 6 -5 2 12 9 22 14 22 5 0 10 10 10 23 2 19 2 20 6 2 5 -26 53 -50
65 -32 4 6 3 14 -2 15 -19 7 -9 27 28 55 31 24 44 28 79 24 24 -2 54 -12 68
-21z m-7866 -230 c17 -26 19 -44 15 -116 -6 -107 -6 -141 -5 -210 1 -29 -1
-68 -4 -85 -4 -24 -3 -26 5 -10 9 20 7 -48 -6 -153 -6 -51 -37 -76 -91 -74
-65 3 -63 -6 -61 316 1 160 4 262 7 226 8 -88 23 -61 21 38 -3 103 -3 100 23
104 47 7 77 -4 96 -36z"/>
<path d="M372 6148 c-45 -49 -48 -102 -5 -140 52 -47 273 -112 297 -88 16 16
44 12 42 -6 0 -9 5 -19 12 -21 6 -3 12 2 12 10 0 7 11 19 25 25 38 18 46 15
35 -12 -11 -29 -5 -36 32 -36 26 0 28 3 28 41 0 28 6 46 18 55 32 25 42 17 42
-36 0 -38 -4 -50 -15 -50 -8 0 -15 -4 -15 -10 0 -6 26 -10 59 -10 49 0 59 3
57 17 -2 23 58 41 79 23 9 -7 14 -19 11 -27 -4 -9 3 -13 24 -13 27 0 29 3 27
38 0 20 2 53 6 72 6 28 3 38 -11 46 -27 17 -102 28 -102 15 0 -15 -145 -8
-165 9 -21 17 -19 24 15 56 l30 29 -33 17 c-27 14 -61 17 -207 18 -193 0 -200
-2 -200 -57 0 -35 25 -47 36 -18 4 8 12 15 20 15 8 0 14 -7 14 -15 0 -13 22
-15 136 -15 94 0 133 -3 128 -11 -4 -7 -27 -9 -60 -6 -69 6 -86 2 -100 -28 -9
-19 -8 -27 4 -39 23 -23 -2 -66 -37 -65 -38 1 -96 24 -95 37 1 7 2 25 3 42 1
27 3 29 27 20 14 -6 35 -10 47 -9 21 0 21 1 -3 12 -14 6 -28 15 -31 20 -4 5
-48 11 -99 13 -101 5 -136 14 -52 14 l52 0 0 45 c0 44 -1 45 -33 45 -22 0 -41
-8 -55 -22z"/>
<path d="M1181 6149 l-33 -20 23 -25 23 -24 -22 -16 c-12 -8 -22 -18 -22 -22
0 -4 50 -32 110 -62 61 -30 110 -58 110 -62 0 -8 -17 -2 -101 36 l-57 25 -6
-32 c-11 -62 -4 -72 45 -68 126 8 229 54 235 102 2 22 -1 26 -16 22 -11 -3
-16 -11 -13 -19 4 -12 -42 -63 -59 -64 -5 0 -8 29 -8 65 l0 65 85 0 c100 0
125 -14 125 -68 0 -34 1 -34 35 -28 50 10 103 44 121 77 17 35 7 42 -48 37
-32 -3 -33 -4 -31 -45 1 -24 -2 -43 -7 -43 -10 0 -12 6 -14 55 l-1 30 -140 1
c-260 3 -286 4 -280 13 5 9 44 12 116 11 19 0 28 6 33 22 l6 23 20 -23 c17
-20 27 -23 89 -21 61 2 71 4 71 19 0 13 6 17 20 13 11 -3 20 -12 20 -19 0 -8
10 -14 25 -14 23 0 25 4 25 40 l0 40 -222 0 c-207 0 -225 -2 -257 -21z"/>
<path d="M1770 6143 c14 -15 28 -29 33 -31 4 -2 7 -17 7 -33 0 -17 4 -28 8
-25 5 3 9 -3 9 -12 1 -22 -38 -64 -53 -58 -7 3 -20 -2 -31 -9 -14 -11 -15 -15
-3 -15 20 -1 -30 -29 -52 -30 -19 0 -26 -20 -8 -20 6 0 8 -11 4 -27 -11 -48
-24 -50 -24 -4 0 37 -2 42 -17 36 -10 -4 -25 -9 -34 -12 -12 -3 -14 -13 -10
-41 l6 -37 72 -7 c87 -9 150 -38 159 -73 4 -15 1 -32 -6 -40 -9 -10 -9 -15 -1
-15 6 0 9 -10 7 -22 -2 -17 -18 -28 -62 -46 -54 -21 -61 -21 -84 -8 -23 13
-30 13 -55 0 -34 -16 -72 -67 -67 -89 4 -19 -6 -19 -51 0 -23 9 -51 12 -85 8
-72 -8 -119 3 -126 29 -3 13 0 26 7 30 9 6 9 8 -2 8 -11 0 -11 3 -1 15 7 8 10
15 6 15 -4 0 1 11 10 25 11 17 25 25 45 25 16 0 29 -4 29 -10 0 -5 -4 -10 -8
-10 -5 0 -16 -19 -25 -42 -12 -31 -14 -45 -6 -55 15 -18 33 -17 25 2 -3 8 -1
15 5 15 5 0 7 11 3 26 -4 16 -3 25 2 21 6 -3 16 8 23 23 l12 30 27 -19 c15
-11 38 -23 52 -26 l25 -7 -25 27 c-24 26 -67 50 -82 47 -5 -1 -8 2 -8 6 0 5
-24 10 -54 11 -48 1 -57 -2 -75 -25 -12 -15 -21 -37 -21 -50 0 -12 -4 -26 -10
-29 -15 -9 -12 -45 5 -51 8 -4 15 -9 15 -14 0 -9 -107 -37 -175 -46 -27 -4
-54 -10 -60 -14 -22 -16 -75 -18 -120 -4 -53 15 -145 19 -145 5 0 -4 39 -11
87 -14 47 -4 90 -10 96 -16 5 -5 21 -5 41 0 70 21 276 49 356 49 47 0 136 -9
199 -20 62 -11 127 -20 145 -20 31 1 31 1 -9 15 -22 8 -49 15 -60 15 -11 0
-29 8 -40 17 -16 13 -17 15 -2 10 9 -4 17 -2 17 3 0 5 11 17 24 25 25 17 16
19 128 -29 20 -9 42 -16 50 -16 7 0 31 -11 52 -24 31 -18 45 -22 70 -15 36 9
172 35 234 44 l42 7 0 -50 c0 -55 14 -74 48 -65 35 9 25 -12 -10 -22 -30 -9
-33 -14 -33 -50 0 -57 -19 -55 -26 2 l-6 48 -1 -42 c-1 -24 -4 -43 -7 -43 -3
0 -23 11 -45 25 -22 14 -42 25 -46 25 -3 0 -22 7 -41 16 -24 12 -31 19 -21 25
7 4 9 11 5 15 -3 4 -13 2 -21 -5 -8 -7 -27 -9 -43 -6 -15 3 -21 2 -13 -1 62
-25 180 -88 258 -136 51 -32 97 -58 102 -58 4 0 11 -6 13 -12 3 -7 5 -2 5 12
-1 14 4 43 10 65 15 50 15 110 2 136 -9 16 -7 19 10 19 30 0 24 17 -8 23 -67
14 -120 100 -92 152 11 21 11 30 -6 61 -18 34 -18 36 -1 48 9 7 17 19 17 27 0
27 -42 125 -59 139 -3 3 -15 23 -26 45 -11 22 -22 42 -25 45 -26 24 -46 122
-24 113 7 -2 21 0 31 7 15 9 14 10 -7 4 -22 -6 -23 -5 -12 9 7 8 24 18 37 21
14 4 25 11 25 16 0 6 7 10 15 10 8 0 15 5 15 10 0 14 -10 12 -50 -10 -19 -10
-46 -25 -60 -32 -14 -7 -28 -16 -31 -21 -3 -4 -10 -2 -16 5 -15 19 -24 48 -15
48 5 0 17 6 27 14 17 12 -5 14 -160 15 l-179 2 24 -28z"/>
<path d="M2281 6156 c-7 -8 -26 -18 -42 -21 -30 -7 -40 -25 -14 -25 8 0 15 5
15 10 0 14 33 13 47 -1 16 -16 86 -16 116 0 36 19 52 9 72 -46 9 -26 27 -75
40 -108 13 -33 38 -98 55 -145 18 -47 54 -141 81 -209 37 -92 47 -127 39 -137
-8 -9 -7 -21 5 -44 19 -37 30 -35 16 3 -19 49 24 52 57 3 23 -34 23 -42 -5
-103 -17 -39 -26 -41 -42 -10 -11 22 -11 22 -5 -3 4 -14 11 -28 16 -31 12 -7
7 -51 -6 -61 -13 -9 -45 -148 -35 -148 5 0 9 8 9 18 0 10 3 22 7 26 9 8 43
116 43 136 0 24 82 187 138 279 29 45 52 87 52 92 0 5 3 9 8 9 9 0 56 69 51
74 -2 3 -20 -18 -39 -45 -19 -27 -40 -47 -47 -44 -7 2 -10 -2 -7 -9 3 -8 1
-17 -4 -20 -6 -3 -39 31 -75 76 -35 46 -74 92 -86 102 -22 20 -28 46 -12 46 5
0 27 -21 48 -47 43 -55 73 -87 73 -78 0 3 -14 24 -32 46 -37 46 -31 65 7 23
27 -29 24 -14 -3 18 -7 9 -11 22 -6 29 4 8 3 10 -5 5 -6 -4 -20 -2 -29 5 -14
11 -15 11 -4 -1 22 -26 12 -34 -13 -10 l-24 23 37 29 c20 17 49 36 63 44 25
13 27 11 60 -34 19 -26 52 -66 75 -89 22 -24 38 -46 35 -49 -3 -4 43 41 102
99 119 116 268 227 392 294 l80 43 -585 -2 c-322 0 -575 -3 -562 -5 12 -2 22
-9 22 -14 0 -12 -43 -12 -56 1 -7 7 -24 6 -53 -5 -54 -19 -50 -19 -44 5 6 23
-9 26 -26 6z m469 -93 c0 -5 20 -30 45 -58 24 -27 44 -54 45 -60 0 -12 -74
-75 -88 -75 -6 0 -19 -12 -30 -27 l-20 -27 -26 30 c-14 16 -35 48 -47 72 -11
23 -25 40 -30 37 -5 -4 -6 0 -3 7 6 14 134 108 146 108 5 0 8 -3 8 -7z"/>
<path d="M8547 5914 c-11 -14 -16 -33 -13 -47 3 -12 3 -16 0 -9 -5 10 -12 6
-25 -15 -25 -37 -24 -52 1 -23 25 28 27 17 3 -13 -25 -30 -56 -32 -48 -3 5 15
4 17 -3 7 -8 -11 -27 -4 -98 37 -81 46 -90 50 -101 35 -7 -9 -13 -22 -12 -27
0 -6 3 -5 6 2 2 6 13 12 24 12 16 0 18 -3 9 -19 -12 -24 5 -39 18 -15 8 15 11
15 38 0 45 -24 70 -49 71 -71 1 -11 5 -32 9 -47 4 -18 2 -28 -5 -28 -6 0 -11
6 -11 13 -1 20 -43 65 -73 76 -43 16 -77 -4 -106 -63 -14 -27 -27 -44 -29 -38
-2 7 -10 12 -18 12 -16 0 -18 12 -5 26 19 19 70 124 61 124 -5 0 -19 -18 -30
-40 -11 -22 -34 -61 -50 -87 -33 -52 -36 -63 -17 -63 22 0 47 -34 41 -56 -4
-13 4 -32 20 -51 14 -17 23 -32 21 -35 -3 -2 16 -4 42 -4 29 1 48 -4 50 -11 3
-7 -1 -13 -9 -13 -15 0 -49 -55 -44 -73 1 -6 1 -8 -2 -3 -5 10 -71 -92 -72
-111 0 -6 -3 -13 -8 -15 -4 -1 -17 -19 -30 -38 -12 -19 -22 -29 -22 -22 0 6
-5 12 -11 12 -25 0 8 -43 114 -151 103 -103 210 -234 246 -299 7 -14 33 -63
57 -110 39 -76 44 -82 44 -52 0 18 -4 41 -9 50 -5 9 -11 267 -14 572 -5 476
-4 558 8 574 18 24 19 67 3 85 -10 11 -10 13 0 7 8 -5 12 0 12 13 0 28 -11 26
-33 -5z"/>
<path d="M1589 5793 c0 -5 -2 -36 -4 -70 -3 -60 -2 -63 18 -59 12 3 52 10 89
17 37 6 65 15 63 20 -3 4 -37 11 -75 15 -98 9 -89 27 9 19 117 -9 120 20 6 50
-64 16 -105 19 -106 8z"/>
<path d="M5615 5400 c4 -14 11 -29 16 -34 5 -6 9 -16 9 -22 0 -7 13 -41 30
-76 16 -35 33 -82 39 -104 5 -21 18 -74 29 -116 23 -87 49 -274 39 -284 -3 -3
-17 7 -31 22 -13 16 -28 25 -33 21 -4 -5 0 -13 10 -18 24 -14 21 -29 -5 -31
-13 0 -3 -4 22 -7 l45 -6 3 -49 c3 -41 1 -48 -12 -43 -11 4 -16 1 -16 -11 0
-9 -3 -28 -6 -42 -4 -18 0 -16 12 10 15 30 18 32 21 14 5 -24 -25 -206 -58
-359 -18 -81 -22 -135 -23 -285 -1 -119 4 -205 12 -240 32 -138 58 -226 87
-295 7 -16 22 -52 33 -80 31 -74 26 -39 -8 62 -45 128 -59 178 -76 273 -27
145 -43 377 -26 366 5 -3 7 21 5 52 -3 35 4 91 17 147 40 171 54 271 55 394 2
176 -24 350 -70 486 -52 151 -91 241 -113 265 -13 12 -14 11 -7 -10z"/>
<path d="M7730 4512 c0 -19 28 -32 101 -44 51 -9 89 -22 122 -44 27 -18 64
-35 83 -38 25 -5 41 -18 63 -49 57 -83 172 -174 239 -188 20 -4 47 -11 60 -14
12 -4 22 -3 22 2 0 11 -76 43 -101 43 -37 0 -155 102 -201 173 -28 44 -33 47
-72 47 -33 0 -49 8 -84 38 -38 34 -53 40 -124 50 -44 6 -87 17 -94 23 -8 7
-14 7 -14 1z"/>
<path d="M1128 3403 c17 -2 32 -10 32 -16 0 -17 -52 -47 -80 -47 -13 0 -19 -4
-14 -11 3 -6 19 -9 35 -7 16 3 29 1 29 -4 0 -4 5 -8 10 -8 6 0 10 6 10 13 0
41 81 63 100 28 15 -29 12 -41 -10 -41 -11 0 -20 -4 -20 -10 0 -5 5 -10 10
-10 6 0 10 -7 10 -16 0 -22 40 -53 68 -54 29 0 41 -29 18 -45 -18 -14 -5 -32
14 -20 13 8 30 -37 30 -81 0 -46 -15 -50 -101 -29 -70 17 -92 36 -70 58 6 6
11 20 11 30 0 14 5 18 20 14 10 -3 24 1 31 9 9 11 7 14 -14 14 -45 0 -75 -20
-81 -55 -4 -18 -4 -40 0 -49 4 -10 0 -18 -10 -22 -32 -12 -14 -19 62 -23 170
-8 241 -6 254 7 17 17 39 15 66 -8 l24 -19 -28 -26 c-15 -14 -31 -25 -35 -25
-15 0 -10 -22 9 -36 9 -7 24 -13 32 -13 11 0 10 3 -4 14 -19 14 -19 15 8 15
25 0 27 -3 22 -25 -5 -21 -3 -25 16 -25 17 0 19 3 9 9 -9 6 -10 11 -2 15 6 4
11 16 11 27 0 10 1 19 3 19 1 0 37 -7 80 -15 98 -19 137 -19 82 -1 -74 25
-144 38 -174 31 -17 -3 -32 -2 -36 4 -4 7 6 11 27 11 l33 1 -45 40 c-48 44
-69 46 -133 14 -46 -23 -59 -20 -53 13 15 82 17 124 5 138 -17 20 -5 28 39 26
54 -3 19 14 -43 21 -27 3 -51 6 -52 6 -2 1 -3 7 -3 14 0 8 -11 24 -26 38 -23
22 -24 24 -8 36 16 12 16 13 2 13 -10 0 -18 10 -20 23 -4 28 -54 46 -128 45
-34 -1 -42 -3 -22 -5z"/>
<path d="M1477 3204 c-2 -3 7 -18 22 -33 14 -16 33 -38 41 -50 17 -23 41 -25
175 -15 l80 6 -2 -54 c-2 -37 0 -47 6 -33 5 11 6 32 4 48 -5 26 -4 27 35 27
37 0 41 -3 45 -27 4 -27 4 -28 12 -5 6 20 12 22 39 16 40 -8 53 -19 72 -59 18
-38 101 -80 199 -101 133 -29 103 -11 -67 40 -31 10 -62 24 -69 32 -6 8 -17
14 -25 14 -7 0 -16 16 -20 36 -7 40 -18 46 -104 63 -165 31 -172 31 -322 17
-36 -4 -37 -3 -32 23 4 17 0 32 -9 39 -15 13 -72 24 -80 16z"/>
<path d="M3813 2903 c-21 -52 -16 -74 8 -35 16 24 28 32 50 32 l29 0 0 -128
c0 -81 -4 -132 -11 -139 -19 -19 0 -33 46 -33 50 0 64 13 41 39 -14 15 -16 39
-14 142 3 119 4 124 25 127 16 2 29 -7 49 -38 15 -22 29 -39 31 -36 4 4 -17
86 -25 96 -2 3 -51 5 -109 5 l-106 0 -14 -32z"/>
<path d="M4129 2929 c-11 -6 -10 -9 3 -14 10 -4 21 -4 26 -1 5 3 18 -1 28 -10
18 -14 18 -14 -6 -12 -21 3 -26 -2 -28 -27 -2 -16 -9 -33 -15 -37 -9 -6 -9
-10 0 -15 15 -11 20 -152 5 -179 -15 -28 -7 -34 44 -34 47 0 62 11 39 30 -10
8 -15 31 -15 72 0 57 1 59 23 52 12 -5 36 -8 52 -9 29 0 30 -2 33 -49 3 -40 0
-51 -18 -63 -31 -22 -15 -33 45 -33 56 0 79 15 52 35 -10 7 -16 29 -17 66 -2
76 -2 79 15 79 8 0 15 6 15 14 0 8 -8 13 -17 12 -27 -2 -30 60 -4 95 24 32 17
37 -53 29 -48 -5 -49 -5 -31 -23 13 -14 18 -32 17 -68 0 -27 -4 -54 -7 -59 -9
-14 -58 -12 -78 3 -21 15 -26 99 -7 122 7 8 10 19 6 23 -10 10 -91 11 -107 1z"/>
<path d="M4485 2932 c-2 -3 4 -20 15 -38 18 -29 20 -44 15 -139 -3 -78 -9
-110 -20 -122 -9 -9 -13 -19 -8 -22 4 -3 52 -5 106 -3 l98 3 21 44 c28 57 18
67 -22 21 -27 -30 -39 -36 -71 -36 l-39 0 0 70 c0 73 8 85 34 48 19 -27 22
-24 30 35 8 53 5 56 -23 26 -28 -30 -41 -16 -41 47 0 51 2 54 24 54 16 0 32
-11 46 -30 12 -16 25 -30 30 -30 9 0 -4 58 -16 69 -7 7 -172 10 -179 3z"/>
<path d="M7685 2616 c-40 -19 -148 -45 -275 -67 -161 -28 -500 -22 -519 9 -4
6 -20 8 -39 4 l-34 -7 44 -12 c69 -18 207 -33 303 -33 171 0 407 42 525 93 14
6 34 14 45 18 l20 7 -20 1 c-11 0 -33 -6 -50 -13z"/>
<path d="M3945 2440 c-3 -5 8 -22 25 -37 l31 -28 9 -215 c5 -118 9 -258 10
-310 l0 -96 -41 -43 c-23 -23 -39 -45 -36 -47 8 -8 441 -4 449 4 4 4 19 56 34
115 42 168 17 163 -86 -19 l-24 -41 -90 -7 c-67 -4 -92 -3 -98 6 -4 7 -8 57
-8 110 0 53 -5 198 -11 322 l-10 225 38 35 38 35 -112 1 c-62 0 -114 -4 -118
-10z"/>
<path d="M4680 2435 c0 -2 14 -20 30 -39 l30 -34 -28 -73 c-15 -41 -37 -104
-47 -141 -11 -38 -22 -68 -25 -68 -3 0 -25 16 -49 35 -38 30 -47 33 -58 22
-20 -20 -8 -40 42 -72 25 -15 45 -32 45 -36 0 -5 -22 -74 -49 -155 -41 -123
-54 -151 -80 -171 -17 -14 -31 -29 -31 -34 0 -5 34 -9 75 -9 l76 0 -14 28
c-13 24 -11 36 13 112 16 47 35 111 44 143 l17 57 45 -31 46 -31 50 25 49 25
8 -21 c5 -12 21 -76 36 -141 l28 -119 -26 -19 c-33 -24 -35 -46 -4 -52 40 -8
184 -15 190 -9 4 3 -4 20 -17 37 -13 17 -31 60 -40 96 -10 36 -24 90 -33 120
-8 30 -20 79 -26 108 -10 49 -9 54 11 68 27 19 31 60 5 49 -10 -3 -22 -7 -27
-8 -4 -1 -21 43 -36 98 -16 55 -33 116 -39 135 -15 46 -16 43 24 64 41 22 44
31 13 40 -27 7 -248 8 -248 1z m135 -215 c10 -47 23 -106 31 -132 l13 -47 -41
-24 -41 -24 -35 20 c-18 11 -36 26 -39 33 -3 7 9 57 26 111 17 54 31 101 31
105 0 20 22 60 29 52 4 -5 16 -47 26 -94z"/>
<path d="M6993 2407 c32 -28 37 -38 37 -74 0 -24 -5 -43 -11 -43 -6 0 1 -14
16 -32 15 -18 24 -39 22 -50 -3 -10 -1 -18 5 -18 12 0 0 -63 -13 -68 -5 -2 -6
-9 -2 -15 4 -6 0 -8 -10 -4 -10 4 -22 -2 -31 -15 -13 -19 -16 -19 -30 -5 -9 9
-16 20 -16 26 0 6 -4 11 -10 11 -17 0 -11 -36 10 -55 13 -12 27 -15 45 -11
l25 6 0 -81 c0 -74 -2 -80 -17 -73 -30 15 -131 8 -159 -11 -14 -9 -23 -19 -19
-23 3 -4 10 0 15 7 13 22 111 26 148 7 17 -9 36 -16 42 -16 6 0 10 40 10 110
0 91 3 117 20 147 11 21 20 45 20 55 0 9 6 19 13 21 7 3 5 6 -5 6 -10 1 -18 7
-18 15 0 7 -7 19 -15 26 -10 9 -15 32 -15 75 l0 63 -47 26 -48 26 38 -33z"/>
<path d="M3549 2426 c-2 -2 -58 -9 -124 -15 -193 -18 -204 -23 -137 -61 l37
-21 33 -331 33 -331 -20 -21 c-29 -31 -27 -48 4 -41 14 3 36 7 49 10 14 3 67
9 118 15 156 16 227 59 279 167 114 239 -39 633 -246 633 -12 0 -24 -2 -26 -4z
m39 -70 c38 -20 65 -54 86 -106 10 -25 22 -53 28 -63 14 -29 38 -245 32 -291
-13 -92 -49 -162 -96 -187 -29 -16 -127 -38 -132 -30 -2 3 -12 74 -20 156 -9
83 -26 229 -36 325 -11 96 -20 180 -20 187 0 23 117 30 158 9z"/>
<path d="M5235 2402 c-3 -3 7 -21 22 -40 l26 -35 -17 -136 c-16 -130 -31 -238
-57 -420 -10 -73 -16 -89 -41 -111 -24 -22 -26 -29 -15 -38 16 -13 157 -29
157 -17 0 4 -10 23 -21 42 -25 40 -25 40 26 373 13 91 25 183 25 205 0 49 11
38 40 -45 13 -36 28 -76 33 -90 5 -14 33 -93 62 -175 29 -83 57 -159 62 -170
21 -41 42 -91 49 -115 11 -39 37 -69 60 -70 18 0 22 11 37 108 9 59 24 161 32
227 8 66 20 147 25 180 5 33 12 90 16 127 6 64 8 68 40 83 19 9 34 19 34 23 0
4 -38 14 -85 23 -47 8 -85 11 -85 6 0 -4 11 -23 24 -40 27 -36 28 -16 -8 -292
-21 -160 -27 -188 -37 -178 -4 4 -28 64 -52 133 -25 69 -63 175 -86 235 -24
61 -47 127 -53 148 -6 20 -16 37 -22 37 -6 0 -50 6 -98 14 -49 7 -90 10 -93 8z"/>
<path d="M1779 2354 c-38 -20 -49 -37 -51 -78 -2 -46 33 -86 74 -86 15 0 28
-4 28 -8 0 -30 -75 -113 -157 -174 -107 -81 -118 -103 -16 -33 138 96 148 107
203 227 17 35 5 76 -26 90 -37 17 -55 -5 -18 -23 40 -20 41 -37 2 -47 -65 -18
-95 54 -42 103 50 47 127 21 136 -45 1 -14 7 -23 13 -20 14 7 6 52 -12 72 -15
17 -75 39 -98 37 -5 -1 -22 -7 -36 -15z"/>
<path d="M3058 2365 c-3 -3 -45 -10 -94 -16 -49 -5 -93 -14 -98 -19 -5 -5 8
-17 31 -28 43 -22 63 -56 63 -105 0 -18 12 -99 26 -182 24 -144 55 -339 57
-360 0 -6 -12 -30 -28 -53 -15 -23 -25 -45 -21 -49 3 -4 28 -2 54 5 26 6 71
14 99 17 29 4 55 11 58 15 3 5 -10 21 -30 35 -22 18 -36 38 -40 58 -2 18 -18
118 -35 222 -16 105 -34 217 -39 250 -24 145 -25 138 8 169 30 29 32 46 7 46
-7 0 -15 -2 -18 -5z"/>
<path d="M2608 2296 c-31 -6 -62 -16 -67 -21 -10 -10 -34 -120 -77 -345 -10
-52 -19 -97 -21 -99 -6 -9 -38 29 -101 119 -124 178 -175 239 -200 239 -31 1
-132 -28 -132 -38 0 -4 18 -22 40 -40 22 -17 40 -39 40 -48 0 -9 6 -39 14 -67
8 -28 22 -80 30 -116 8 -36 29 -123 46 -195 44 -184 47 -213 21 -260 -12 -22
-17 -41 -12 -43 10 -3 196 43 212 54 6 3 -6 17 -28 32 -21 14 -39 26 -41 28
-2 1 -12 40 -23 85 -96 400 -109 456 -109 464 0 4 11 -7 23 -26 66 -95 214
-297 233 -318 13 -14 24 -19 28 -13 3 6 13 55 21 109 8 54 23 151 35 216 11
65 20 121 21 125 1 4 7 -20 14 -53 7 -33 20 -94 28 -135 9 -41 23 -104 32
-140 49 -213 50 -225 27 -265 -31 -51 -29 -59 16 -51 20 4 64 11 97 17 94 15
95 16 52 53 -34 29 -40 40 -53 107 -7 41 -18 94 -23 119 -103 479 -99 455 -72
484 20 22 19 37 -3 35 -6 -1 -37 -7 -68 -13z"/>
<path d="M5990 2275 c0 -3 12 -23 26 -45 14 -21 24 -43 21 -47 -11 -17 -87
-393 -87 -428 0 -57 -39 -187 -61 -203 -41 -29 -23 -43 86 -68 17 -3 50 -13
75 -21 51 -17 126 -12 185 12 87 37 161 135 198 265 53 187 42 286 -47 403
-45 60 -99 81 -316 123 -87 16 -80 15 -80 9z m273 -108 c53 -40 77 -101 77
-196 0 -88 -32 -267 -57 -316 -41 -80 -111 -141 -169 -145 -61 -4 -92 0 -98
15 -3 8 4 56 15 107 24 111 44 206 64 308 15 75 22 108 45 209 l12 53 39 -5
c22 -3 54 -16 72 -30z"/>
<path d="M6796 1841 c-32 -60 -18 -157 29 -207 29 -30 38 -34 85 -34 72 0 120
29 120 74 0 18 5 37 11 43 23 23 -56 133 -97 133 -29 0 -69 -33 -84 -70 -11
-25 -10 -35 4 -63 l17 -32 -5 33 c-5 27 8 72 28 99 0 1 13 4 27 8 21 5 32 0
58 -25 66 -66 27 -180 -61 -180 -20 0 -48 4 -62 10 -54 20 -81 104 -60 186 15
58 11 67 -10 25z"/>
<path d="M1563 1838 c-13 -6 -34 -35 -48 -64 -24 -51 -25 -58 -25 -278 0 -180
3 -226 13 -226 11 0 13 48 13 238 -1 221 0 239 19 272 17 29 28 36 59 38 46 4
76 -19 76 -58 0 -32 -17 -50 -46 -50 -24 0 -37 21 -27 46 4 12 2 15 -8 12 -16
-5 -23 -47 -11 -65 4 -7 22 -16 39 -19 26 -5 37 -1 57 19 36 36 33 72 -8 113
-35 35 -63 41 -103 22z"/>
<path d="M8263 1732 l-32 -3 -1 -289 c0 -198 3 -291 10 -295 6 -4 15 -18 20
-31 8 -20 16 -24 55 -24 25 0 45 3 45 8 8 110 8 144 0 132 -6 -8 -10 -27 -10
-42 0 -21 -5 -28 -20 -28 -19 0 -28 24 -12 33 7 5 6 173 -1 227 -2 14 1 31 7
38 6 9 6 16 0 20 -6 4 -11 57 -11 125 -1 118 0 118 23 115 13 -2 23 1 24 6 0
9 -45 13 -97 8z m26 -293 c0 -256 -2 -280 -17 -277 -15 3 -17 30 -20 268 -1
145 0 270 2 277 3 7 12 13 21 13 13 0 15 -34 14 -281z"/>
<path d="M718 1189 c-10 -5 -18 -17 -18 -26 0 -26 -20 -83 -52 -149 -29 -61
-91 -136 -137 -165 -18 -11 -24 -25 -27 -64 -4 -64 -6 -736 -2 -740 2 -2 289
0 638 4 349 3 1028 6 1509 6 481 0 862 3 845 6 -16 4 -689 7 -1495 8 -1164 1
-1468 4 -1470 14 -2 6 -4 176 -4 377 l0 364 23 12 c74 37 166 177 179 272 3
26 12 52 19 59 9 10 102 11 421 5 224 -4 464 -6 533 -6 257 2 2565 14 3075 15
292 1 514 5 495 8 -29 6 -2034 4 -3720 -2 -223 -1 -493 1 -600 5 -130 5 -201
4 -212 -3z"/>
<path d="M5335 1189 c-22 -3 533 -7 1233 -8 1252 -1 1272 -1 1272 -20 0 -11 5
-23 10 -26 6 -4 10 7 10 24 0 25 -4 31 -22 32 -155 4 -2474 2 -2503 -2z"/>
<path d="M806 1092 c-14 -13 -4 -43 19 -58 l25 -16 0 -387 0 -387 -35 -34
c-19 -19 -35 -38 -35 -42 0 -4 52 -8 115 -8 63 0 115 3 115 6 0 4 -16 26 -35
50 l-35 42 0 334 0 333 21 -35 c12 -19 73 -132 136 -250 63 -118 123 -228 133
-245 10 -16 32 -57 50 -90 82 -151 78 -146 124 -143 l41 3 2 428 2 429 25 33
c14 19 26 36 26 39 0 3 -47 6 -105 6 -58 0 -105 -3 -105 -6 0 -3 16 -26 35
-51 l35 -46 1 -116 c0 -64 1 -189 2 -278 2 -130 0 -160 -10 -151 -7 6 -13 15
-13 20 0 6 -59 121 -132 257 -72 135 -146 273 -163 306 l-32 60 -101 2 c-55 0
-103 -1 -106 -5z"/>
<path d="M3500 1088 c0 -3 12 -20 26 -37 l26 -31 -2 -296 c0 -163 -5 -318 -11
-345 -7 -32 -23 -62 -48 -90 -35 -40 -39 -42 -97 -43 -52 -1 -66 3 -98 28 -69
52 -70 61 -68 421 l3 320 31 32 c17 18 29 35 26 38 -3 3 -60 4 -127 3 l-122
-3 35 -42 36 -41 0 -331 c0 -367 -3 -346 69 -424 57 -62 104 -81 191 -82 64 0
82 4 123 28 56 33 112 105 126 164 7 25 11 168 11 354 l0 313 27 28 c14 15 25
30 22 32 -7 7 -179 11 -179 4z"/>
<path d="M4888 1092 c-71 -1 -128 -6 -128 -10 0 -4 11 -20 25 -36 14 -16 25
-32 25 -35 0 -12 -50 -207 -59 -231 -5 -14 -17 -56 -27 -93 l-17 -68 -59 7
c-57 6 -58 6 -58 -19 0 -21 7 -26 46 -36 44 -11 46 -13 41 -44 -2 -18 -21 -90
-41 -162 -30 -108 -41 -135 -67 -158 -17 -16 -28 -31 -24 -35 10 -10 155 -10
161 0 3 5 -2 18 -11 28 -21 23 -18 47 23 205 20 77 34 111 45 113 8 2 33 -13
55 -32 22 -20 43 -36 47 -36 4 0 27 18 51 40 24 22 50 40 57 40 8 0 25 -44 47
-122 18 -68 37 -127 42 -133 14 -15 9 -46 -12 -72 -11 -14 -18 -28 -16 -32 8
-13 187 -12 202 0 13 10 10 17 -16 44 -31 32 -80 157 -96 243 -4 20 -13 51
-21 69 -18 43 -18 43 20 43 46 0 65 15 51 37 -8 12 -24 18 -49 18 -23 0 -41 6
-46 15 -5 8 -27 76 -50 150 -22 74 -48 157 -56 185 l-15 49 37 32 c21 17 34
33 29 35 -5 2 -66 3 -136 1z m5 -232 c9 -36 20 -81 25 -100 5 -19 17 -60 25
-90 8 -30 18 -62 22 -71 4 -12 -4 -23 -32 -40 -21 -13 -41 -28 -45 -33 -5 -8
-13 -7 -25 2 -10 6 -33 20 -50 29 -22 11 -33 24 -33 38 0 12 15 82 34 156 18
74 36 147 40 163 10 39 21 24 39 -54z"/>
<path d="M5413 1092 c-18 -2 -33 -6 -33 -9 0 -4 14 -18 30 -32 l30 -26 5 -396
5 -396 -25 -23 c-51 -48 -43 -50 199 -50 l224 0 11 27 c6 16 22 71 36 123 21
83 22 97 10 110 -21 20 -29 9 -80 -102 l-43 -93 -105 -3 -104 -3 -8 396 -7
396 27 35 c15 19 25 37 24 39 -6 5 -160 10 -196 7z"/>
<path d="M1840 1081 c0 -4 9 -20 21 -35 l21 -26 -31 -98 c-17 -53 -44 -142
-60 -197 l-29 -100 -46 3 c-44 4 -46 3 -46 -22 0 -19 5 -26 19 -26 31 0 51
-11 51 -29 0 -20 -77 -286 -89 -309 -5 -9 -21 -28 -35 -41 -14 -14 -26 -28
-26 -33 0 -4 41 -8 91 -8 89 0 90 0 83 23 -3 12 -10 27 -15 33 -6 7 -3 37 7
75 8 35 22 91 30 124 9 33 18 72 21 88 8 41 15 39 120 -38 20 -15 24 -14 68
19 26 20 50 36 54 36 5 0 18 -35 31 -77 12 -43 31 -105 41 -137 23 -73 23 -75
-1 -106 -11 -14 -20 -28 -20 -32 0 -5 59 -8 130 -8 72 0 130 4 130 9 0 5 -19
24 -43 44 -24 20 -48 50 -54 69 -6 18 -29 85 -52 148 -23 63 -39 121 -36 128
2 6 17 12 32 12 40 0 56 13 48 39 -7 23 -34 27 -65 11 -29 -16 -28 -17 -116
268 l-37 123 31 32 c18 18 32 36 32 40 0 4 -58 7 -130 7 -71 0 -130 -4 -130
-9z m148 -341 c55 -183 55 -168 1 -191 l-46 -20 -51 32 c-29 18 -52 36 -52 40
0 5 6 28 14 51 8 24 24 77 36 118 32 111 42 134 50 118 4 -7 26 -74 48 -148z"/>
<path d="M2340 1048 c-7 -24 -21 -71 -32 -105 -20 -62 -18 -86 5 -77 7 2 35
42 62 89 l50 85 73 0 72 0 0 -400 0 -400 -30 -27 c-54 -47 -44 -53 95 -52 69
1 125 6 125 10 0 5 -13 22 -29 37 l-29 27 -6 403 -6 402 69 0 c78 0 76 2 154
-114 36 -53 67 -73 67 -43 0 16 -28 105 -39 127 -5 9 -12 30 -16 48 l-7 32
-283 0 -284 0 -11 -42z"/>
<path d="M3840 1079 c0 -7 10 -23 23 -37 l22 -24 -3 -386 c-2 -374 -3 -388
-23 -415 -35 -48 -22 -57 85 -57 52 0 97 4 100 9 3 5 -3 20 -14 34 -19 23 -21
45 -25 223 l-5 196 66 -4 c64 -4 68 -6 109 -50 36 -38 49 -63 75 -148 18 -56
38 -135 44 -174 l12 -71 82 -3 c86 -3 101 5 58 34 -14 8 -28 30 -32 47 -29
135 -96 280 -158 341 l-43 43 32 12 c71 25 155 125 155 184 0 44 -32 132 -63
171 -54 68 -95 79 -309 84 -148 3 -188 1 -188 -9z m339 -72 c50 -33 76 -87 75
-157 0 -69 -25 -121 -64 -139 -54 -23 -149 -39 -165 -27 -10 8 -16 51 -21 168
-4 86 -4 164 0 173 10 27 124 15 175 -18z"/>
<path d="M5970 1077 c0 -7 14 -26 30 -42 l30 -29 0 -379 0 -379 -30 -35 c-16
-18 -30 -38 -30 -43 0 -6 50 -10 120 -10 66 0 120 3 120 6 0 4 -13 22 -30 41
l-30 34 0 387 0 388 30 29 c17 16 30 32 30 37 0 4 -54 8 -120 8 -92 0 -120 -3
-120 -13z"/>
<path d="M6545 1074 c-120 -65 -168 -208 -105 -312 22 -35 144 -128 241 -182
73 -41 154 -111 174 -151 32 -61 10 -146 -45 -174 -42 -22 -132 -19 -179 5
-52 26 -113 100 -153 183 -26 54 -37 67 -53 65 -15 -2 -20 -10 -18 -33 3 -52
59 -295 71 -307 16 -16 42 -2 42 24 0 13 3 33 6 45 6 21 7 21 50 -13 92 -70
202 -82 294 -33 83 44 113 92 118 186 4 64 1 77 -24 123 -38 70 -130 159 -201
194 -178 89 -233 143 -233 225 1 55 14 76 63 96 48 20 80 19 125 -4 46 -24 84
-64 112 -118 15 -29 29 -43 42 -43 17 0 19 5 15 28 -3 15 -10 54 -16 87 -6 33
-14 75 -17 93 -6 40 -39 44 -55 8 l-11 -24 -42 21 c-54 28 -159 34 -201 11z"/>
<path d="M7094 1063 c-3 -16 -12 -48 -20 -72 -16 -51 -18 -87 -5 -95 20 -13
40 8 65 65 l25 59 81 0 80 0 1 -82 c1 -46 1 -222 0 -393 l-2 -310 -35 -28
c-19 -16 -31 -33 -28 -38 3 -5 66 -9 140 -9 163 0 166 3 68 75 -15 10 -17 52
-18 396 l-1 384 79 0 79 0 37 -60 c29 -47 42 -61 65 -63 23 -3 27 0 23 15 -3
10 -16 55 -29 101 l-24 82 -287 0 -288 0 -6 -27z"/>
<path d="M8185 830 c-3 -5 0 -19 7 -30 11 -18 10 -23 -4 -31 -41 -23 4 -69 46
-47 13 7 26 6 43 -3 19 -10 31 -10 56 -1 20 8 35 8 41 2 6 -6 23 -10 39 -10
25 0 28 3 25 28 -2 19 -9 27 -23 27 -13 1 -19 6 -16 15 7 28 6 45 -4 50 -5 3
-11 -14 -13 -37 -3 -34 0 -43 12 -43 9 0 16 -7 16 -15 0 -19 -5 -19 -24 1 -9
8 -16 30 -16 49 0 27 -5 35 -30 45 -24 10 -37 10 -57 1 -18 -8 -29 -9 -37 -1
-13 13 -53 13 -61 0z"/>
<path d="M8050 425 l0 -355 -1062 -2 c-585 -2 -1601 -1 -2259 1 -831 3 -1198
1 -1202 -6 -7 -11 230 -12 2228 -17 303 0 721 3 930 8 252 5 529 4 825 -4 246
-6 472 -8 505 -3 l60 8 -1 48 c0 26 -2 189 -2 362 -1 202 -6 315 -12 315 -6 0
-10 -125 -10 -355z"/>
<path d="M3933 3 c313 -2 821 -2 1130 0 309 1 54 2 -568 2 -621 0 -874 -1
-562 -2z"/>
</g>
</svg>
